STARTFONT 2.1
COMMENT
COMMENT Converted from OpenType font "CircularStd-Bold.otf" by "otf2bdf 3.0".
COMMENT
FONT -FreeType-Circular Std Bold-Medium-R-Normal--26-190-100-100-P-139-ISO10646-1
SIZE 19 100 100
FONTBOUNDINGBOX 42 30 -1 -6
STARTPROPERTIES 19
FOUNDRY "FreeType"
FAMILY_NAME "Circular Std Bold"
WEIGHT_NAME "Medium"
SLANT "R"
SETWIDTH_NAME "Normal"
ADD_STYLE_NAME ""
PIXEL_SIZE 26
POINT_SIZE 190
RESOLUTION_X 100
RESOLUTION_Y 100
SPACING "P"
AVERAGE_WIDTH 139
CHARSET_REGISTRY "ISO10646"
CHARSET_ENCODING "1"
FONT_ASCENT 25
FONT_DESCENT 6
COPYRIGHT "Generated in 2013 by FontLab Studio. Copyright info pending."
_OTF_FONTFILE "CircularStd-Bold.otf"
_OTF_PSNAME "CircularStd-Bold"
ENDPROPERTIES
CHARS 332
STARTCHAR 0000
ENCODING 0
SWIDTH 0 0
DWIDTH 0 0
BBX 0 0 0 0
BITMAP
ENDCHAR
STARTCHAR 000D
ENCODING 13
SWIDTH 265 0
DWIDTH 7 0
BBX 0 0 0 0
BITMAP
ENDCHAR
STARTCHAR 0020
ENCODING 32
SWIDTH 265 0
DWIDTH 7 0
BBX 0 0 0 0
BITMAP
ENDCHAR
STARTCHAR 0021
ENCODING 33
SWIDTH 341 0
DWIDTH 9 0
BBX 4 19 2 0
BITMAP
F0
F0
F0
F0
70
70
70
70
70
70
70
70
70
00
00
70
F0
F0
70
ENDCHAR
STARTCHAR 0022
ENCODING 34
SWIDTH 416 0
DWIDTH 11 0
BBX 9 7 1 10
BITMAP
6700
F780
F780
E700
6700
6300
6300
ENDCHAR
STARTCHAR 0023
ENCODING 35
SWIDTH 757 0
DWIDTH 20 0
BBX 18 17 1 0
BITMAP
038E00
038E00
030C00
070C00
7FFFC0
7FFFC0
7FFFC0
0E1800
0E3800
0E3800
FFFF00
FFFF00
FFFF00
1C7000
1C7000
187000
386000
ENDCHAR
STARTCHAR 0024
ENCODING 36
SWIDTH 606 0
DWIDTH 16 0
BBX 13 23 1 -3
BITMAP
0380
0380
0380
0FC0
3FF0
3FF8
7878
7030
7800
7C00
3FC0
3FF0
0FF8
00F8
3038
F038
7878
7FF8
3FF0
1FE0
0380
0380
0380
ENDCHAR
STARTCHAR 0025
ENCODING 37
SWIDTH 871 0
DWIDTH 23 0
BBX 20 17 1 0
BITMAP
1E03C0
7F0380
7F8700
E38E00
E38E00
E39C00
7F3800
3E7800
007000
00E7E0
01CFF0
01CE70
038C30
070E30
070FF0
0E07E0
1C03C0
ENDCHAR
STARTCHAR 0026
ENCODING 38
SWIDTH 720 0
DWIDTH 19 0
BBX 16 19 2 0
BITMAP
0F00
3FC0
7FE0
79E0
70E0
70E0
79E0
3FC0
3F82
1F06
7F8E
7FDE
F3FE
E1FC
E0F8
F1FC
FFFE
7F9E
1F0F
ENDCHAR
STARTCHAR 0027
ENCODING 39
SWIDTH 227 0
DWIDTH 6 0
BBX 4 7 1 10
BITMAP
60
F0
F0
E0
60
60
60
ENDCHAR
STARTCHAR 0028
ENCODING 40
SWIDTH 341 0
DWIDTH 9 0
BBX 7 27 1 -5
BITMAP
04
0E
0E
1C
3C
38
78
70
70
70
E0
E0
E0
E0
E0
E0
E0
F0
70
70
78
38
3C
1C
0E
0E
04
ENDCHAR
STARTCHAR 0029
ENCODING 41
SWIDTH 341 0
DWIDTH 9 0
BBX 8 27 0 -5
BITMAP
60
E0
F0
78
38
1C
1C
0E
0E
0E
0E
07
07
07
07
07
0E
0E
0E
0E
1C
1C
38
78
70
E0
40
ENDCHAR
STARTCHAR 002A
ENCODING 42
SWIDTH 454 0
DWIDTH 12 0
BBX 10 10 1 9
BITMAP
0C00
0C00
8C40
FFC0
FFC0
3F00
3F00
3F80
7380
2100
ENDCHAR
STARTCHAR 002B
ENCODING 43
SWIDTH 606 0
DWIDTH 16 0
BBX 13 13 1 1
BITMAP
0700
0700
0700
0700
0700
FFF8
FFF8
FFF8
0700
0700
0700
0700
0700
ENDCHAR
STARTCHAR 002C
ENCODING 44
SWIDTH 303 0
DWIDTH 8 0
BBX 5 8 2 -4
BITMAP
F0
F0
F8
F8
30
30
E0
C0
ENDCHAR
STARTCHAR 002D
ENCODING 45
SWIDTH 378 0
DWIDTH 10 0
BBX 8 3 1 6
BITMAP
FF
FF
FF
ENDCHAR
STARTCHAR 002E
ENCODING 46
SWIDTH 303 0
DWIDTH 8 0
BBX 5 5 2 0
BITMAP
70
F0
F8
F0
70
ENDCHAR
STARTCHAR 002F
ENCODING 47
SWIDTH 492 0
DWIDTH 13 0
BBX 12 19 0 0
BITMAP
0070
0070
00E0
00E0
01C0
01C0
0380
0380
0700
0700
0E00
0E00
1C00
1C00
3800
3800
7000
7000
E000
ENDCHAR
STARTCHAR 0030
ENCODING 48
SWIDTH 606 0
DWIDTH 16 0
BBX 14 17 1 0
BITMAP
07C0
1FF0
3FF8
7CF8
783C
F03C
F01C
F01C
F01C
F01C
F01C
F03C
783C
7C78
3FF8
1FF0
0FC0
ENDCHAR
STARTCHAR 0031
ENCODING 49
SWIDTH 378 0
DWIDTH 10 0
BBX 8 17 1 0
BITMAP
0F
0F
3F
FF
FF
0F
0F
0F
0F
0F
0F
0F
0F
0F
0F
0F
0F
ENDCHAR
STARTCHAR 0032
ENCODING 50
SWIDTH 530 0
DWIDTH 14 0
BBX 13 17 1 0
BITMAP
0F80
3FE0
7FF0
F9F0
F0F0
E070
F070
00F0
03E0
07C0
1F80
3E00
7C00
7800
FFF8
FFF8
FFF8
ENDCHAR
STARTCHAR 0033
ENCODING 51
SWIDTH 530 0
DWIDTH 14 0
BBX 13 17 1 0
BITMAP
FFF0
FFF0
FFF0
01E0
03C0
0780
1F00
0FE0
0FF0
00F0
0078
E078
E078
F8F0
7FF0
3FE0
1F80
ENDCHAR
STARTCHAR 0034
ENCODING 52
SWIDTH 606 0
DWIDTH 16 0
BBX 14 17 1 0
BITMAP
01F0
03F0
07F0
0FF0
0EF0
1EF0
3CF0
78F0
F0F0
E0F0
FFFC
FFFC
FFFC
00F0
00F0
00F0
00F0
ENDCHAR
STARTCHAR 0035
ENCODING 53
SWIDTH 568 0
DWIDTH 15 0
BBX 13 17 1 0
BITMAP
3FF0
3FF0
3FF0
7800
7000
7000
77C0
7FE0
FFF0
30F8
0078
0078
F078
F8F0
7FF0
3FE0
0F80
ENDCHAR
STARTCHAR 0036
ENCODING 54
SWIDTH 568 0
DWIDTH 15 0
BBX 14 17 1 0
BITMAP
03F8
0FF8
1FF8
3E10
7800
7800
73C0
FFF0
FFF8
F878
F03C
F03C
703C
7878
3FF8
1FF0
0FC0
ENDCHAR
STARTCHAR 0037
ENCODING 55
SWIDTH 492 0
DWIDTH 13 0
BBX 13 17 0 0
BITMAP
FFF8
FFF8
FFF8
0078
00F0
01E0
03C0
0380
0780
0F00
0F00
0E00
1E00
1E00
1E00
1C00
1C00
ENDCHAR
STARTCHAR 0038
ENCODING 56
SWIDTH 568 0
DWIDTH 15 0
BBX 13 17 1 0
BITMAP
0F80
3FE0
7FF0
78F0
F078
F078
78F0
3FE0
1FC0
7FF0
7078
F078
F078
F8F8
7FF0
3FE0
1F80
ENDCHAR
STARTCHAR 0039
ENCODING 57
SWIDTH 568 0
DWIDTH 15 0
BBX 13 17 1 0
BITMAP
0F80
3FE0
7FF0
F8F0
F078
E078
F078
F8F8
7FF8
3FF8
1F38
0078
00F0
41F0
7FE0
7FC0
7F00
ENDCHAR
STARTCHAR 003A
ENCODING 58
SWIDTH 303 0
DWIDTH 8 0
BBX 5 13 2 0
BITMAP
70
F0
F0
F0
70
00
00
00
70
F0
F8
F0
70
ENDCHAR
STARTCHAR 003B
ENCODING 59
SWIDTH 303 0
DWIDTH 8 0
BBX 5 17 2 -5
BITMAP
70
F0
F8
F0
70
00
00
00
00
70
F0
F8
F8
30
30
70
E0
ENDCHAR
STARTCHAR 003C
ENCODING 60
SWIDTH 492 0
DWIDTH 13 0
BBX 11 14 1 1
BITMAP
0020
00E0
03E0
0FE0
3F80
FE00
F000
F800
FE00
3F80
0FE0
03E0
00E0
0020
ENDCHAR
STARTCHAR 003D
ENCODING 61
SWIDTH 606 0
DWIDTH 16 0
BBX 12 8 2 4
BITMAP
FFF0
FFF0
FFF0
0000
0000
FFF0
FFF0
FFF0
ENDCHAR
STARTCHAR 003E
ENCODING 62
SWIDTH 492 0
DWIDTH 13 0
BBX 11 14 1 1
BITMAP
8000
E000
F800
FE00
3F80
0FE0
01E0
01E0
07E0
1F80
FE00
F800
E000
8000
ENDCHAR
STARTCHAR 003F
ENCODING 63
SWIDTH 530 0
DWIDTH 14 0
BBX 12 19 1 0
BITMAP
1F80
3FC0
7FE0
F1F0
F0F0
E070
E0F0
01F0
03E0
07C0
0F00
0E00
0E00
0000
0000
0E00
0F00
0F00
0E00
ENDCHAR
STARTCHAR 0040
ENCODING 64
SWIDTH 833 0
DWIDTH 22 0
BBX 20 20 1 -1
BITMAP
01FC00
07FF00
0F9F80
1C01C0
3800E0
70F660
71FE70
E3DE70
E70E70
E70C70
E70C70
E70C60
E71CE0
E3FFC0
73EF80
780000
3C0100
1F0300
0FFF00
03FE00
ENDCHAR
STARTCHAR 0041
ENCODING 65
SWIDTH 720 0
DWIDTH 19 0
BBX 19 19 0 0
BITMAP
01F000
01F000
03F800
03F800
03B800
07BC00
07BC00
071C00
0F1E00
0E1E00
1E0F00
1FFF00
1FFF00
3FFF80
3C0780
380380
7803C0
7803C0
F001E0
ENDCHAR
STARTCHAR 0042
ENCODING 66
SWIDTH 606 0
DWIDTH 16 0
BBX 13 19 2 0
BITMAP
FFC0
FFE0
FFF0
F0F0
F078
F078
F070
F0F0
FFE0
FFC0
FFF0
F078
F078
F078
F078
F0F8
FFF0
FFF0
FFC0
ENDCHAR
STARTCHAR 0043
ENCODING 67
SWIDTH 757 0
DWIDTH 20 0
BBX 18 19 1 0
BITMAP
01F800
0FFE00
1FFF00
3FFF80
7C07C0
7803C0
780380
F00000
F00000
F00000
F00000
F00000
F80180
7803C0
7C07C0
3FFF80
1FFF00
0FFE00
03F800
ENDCHAR
STARTCHAR 0044
ENCODING 68
SWIDTH 720 0
DWIDTH 19 0
BBX 16 19 2 0
BITMAP
FFC0
FFF0
FFFC
F1FC
F03E
F01E
F00F
F00F
F00F
F00F
F00F
F00F
F00F
F01E
F03E
F1FC
FFF8
FFF0
FFC0
ENDCHAR
STARTCHAR 0045
ENCODING 69
SWIDTH 568 0
DWIDTH 15 0
BBX 12 19 2 0
BITMAP
FFF0
FFF0
FFF0
F000
F000
F000
F000
F000
FFE0
FFE0
FFE0
F000
F000
F000
F000
F000
FFF0
FFF0
FFF0
ENDCHAR
STARTCHAR 0046
ENCODING 70
SWIDTH 568 0
DWIDTH 15 0
BBX 12 19 2 0
BITMAP
FFF0
FFF0
FFF0
F000
F000
F000
F000
F000
FFE0
FFE0
FFE0
F000
F000
F000
F000
F000
F000
F000
F000
ENDCHAR
STARTCHAR 0047
ENCODING 71
SWIDTH 795 0
DWIDTH 21 0
BBX 18 19 1 0
BITMAP
01F800
0FFE00
1FFF00
3FBF80
7C07C0
7803C0
F00100
F00000
F00000
F07FC0
F07FC0
F07FC0
F001C0
7803C0
7C07C0
3F9FC0
1FFFC0
0FFDC0
03F1C0
ENDCHAR
STARTCHAR 0048
ENCODING 72
SWIDTH 757 0
DWIDTH 20 0
BBX 16 19 2 0
BITMAP
F00F
F00F
F00F
F00F
F00F
F00F
F00F
F00F
FFFF
FFFF
FFFF
F00F
F00F
F00F
F00F
F00F
F00F
F00F
F00F
ENDCHAR
STARTCHAR 0049
ENCODING 73
SWIDTH 303 0
DWIDTH 8 0
BBX 4 19 2 0
BITMAP
F0
F0
F0
F0
F0
F0
F0
F0
F0
F0
F0
F0
F0
F0
F0
F0
F0
F0
F0
ENDCHAR
STARTCHAR 004A
ENCODING 74
SWIDTH 568 0
DWIDTH 15 0
BBX 12 19 1 0
BITMAP
00F0
00F0
00F0
00F0
00F0
00F0
00F0
00F0
00F0
00F0
00F0
60F0
E0F0
E0F0
F0F0
FBE0
FFE0
7FC0
1F00
ENDCHAR
STARTCHAR 004B
ENCODING 75
SWIDTH 682 0
DWIDTH 18 0
BBX 16 19 2 0
BITMAP
F01F
F03E
F07C
F0F8
F1F0
F3E0
F3C0
F780
FF80
FF80
FFC0
FFE0
F9F0
F0F0
F0F8
F07C
F03C
F03E
F01F
ENDCHAR
STARTCHAR 004C
ENCODING 76
SWIDTH 568 0
DWIDTH 15 0
BBX 12 19 2 0
BITMAP
F000
F000
F000
F000
F000
F000
F000
F000
F000
F000
F000
F000
F000
F000
F000
F000
FFF0
FFF0
FFF0
ENDCHAR
STARTCHAR 004D
ENCODING 77
SWIDTH 947 0
DWIDTH 25 0
BBX 21 19 2 0
BITMAP
F800F8
FC01F8
FC01F8
FC01F8
FE03F8
FE03F8
FF07F8
FF07F8
F70778
F78F78
F38E78
F3DE78
F3DE78
F1DC78
F1FC78
F0F878
F0F878
F0F878
F07078
ENDCHAR
STARTCHAR 004E
ENCODING 78
SWIDTH 757 0
DWIDTH 20 0
BBX 16 19 2 0
BITMAP
F80F
FC0F
FC0F
FE0F
FE0F
FF0F
FF8F
F78F
F3CF
F3EF
F1EF
F0FF
F0FF
F07F
F07F
F03F
F01F
F01F
F00F
ENDCHAR
STARTCHAR 004F
ENCODING 79
SWIDTH 795 0
DWIDTH 21 0
BBX 19 19 1 0
BITMAP
01F800
0FFE00
1FFF00
3FFF80
7C07C0
7803C0
7801E0
F001E0
F001E0
F001E0
F001E0
F001E0
F801E0
7803C0
7C07C0
3FFF80
1FFF00
0FFE00
03F800
ENDCHAR
STARTCHAR 0050
ENCODING 80
SWIDTH 606 0
DWIDTH 16 0
BBX 13 19 2 0
BITMAP
FFC0
FFE0
FFF0
F0F8
F078
F038
F038
F078
F0F8
FFF0
FFE0
FFC0
F000
F000
F000
F000
F000
F000
F000
ENDCHAR
STARTCHAR 0051
ENCODING 81
SWIDTH 795 0
DWIDTH 21 0
BBX 19 20 1 -1
BITMAP
01F800
0FFE00
1FFF00
3FFF80
7C07C0
7803C0
7801E0
F001E0
F001E0
F001E0
F011E0
F039E0
F83DE0
781FC0
7C0FC0
3FFF80
1FFFC0
0FFFE0
03F9E0
000080
ENDCHAR
STARTCHAR 0052
ENCODING 82
SWIDTH 644 0
DWIDTH 17 0
BBX 13 19 2 0
BITMAP
FFC0
FFF0
FFF0
F0F8
F078
F038
F038
F078
F0F8
FFF0
FFE0
FFC0
F3C0
F3C0
F1E0
F0F0
F0F0
F078
F078
ENDCHAR
STARTCHAR 0053
ENCODING 83
SWIDTH 606 0
DWIDTH 16 0
BBX 14 19 1 0
BITMAP
0FC0
1FF0
3FF8
7CF8
703C
7020
7000
7C00
7FC0
3FF0
0FF8
00FC
003C
E03C
F03C
7C7C
7FF8
3FF0
0FC0
ENDCHAR
STARTCHAR 0054
ENCODING 84
SWIDTH 606 0
DWIDTH 16 0
BBX 16 19 0 0
BITMAP
FFFF
FFFF
FFFF
03C0
03C0
03C0
03C0
03C0
03C0
03C0
03C0
03C0
03C0
03C0
03C0
03C0
03C0
03C0
03C0
ENDCHAR
STARTCHAR 0055
ENCODING 85
SWIDTH 682 0
DWIDTH 18 0
BBX 14 19 2 0
BITMAP
F01C
F01C
F01C
F01C
F01C
F01C
F01C
F01C
F01C
F01C
F01C
F01C
F01C
F03C
F83C
7FFC
7FF8
3FF0
0FC0
ENDCHAR
STARTCHAR 0056
ENCODING 86
SWIDTH 682 0
DWIDTH 18 0
BBX 18 19 0 0
BITMAP
F003C0
780780
780780
380780
3C0F00
3C0F00
1E0E00
1E1E00
1E1E00
0F1C00
0F3C00
0F3C00
07B800
07F800
03F800
03F000
03F000
01E000
01E000
ENDCHAR
STARTCHAR 0057
ENCODING 87
SWIDTH 1023 0
DWIDTH 27 0
BBX 27 19 0 0
BITMAP
F00F01E0
781F01C0
781F03C0
781F83C0
383F83C0
3C3F8380
3C3BC780
3C7BC780
1C79C700
1E71E700
1EF1EF00
1EF1EF00
0EE0EE00
0FE0FE00
0FE0FE00
07C07E00
07C07C00
07C07C00
07803C00
ENDCHAR
STARTCHAR 0058
ENCODING 88
SWIDTH 682 0
DWIDTH 18 0
BBX 16 19 1 0
BITMAP
F00F
F81E
783E
3C3C
3E78
1EF8
0FF0
0FE0
07E0
03C0
07E0
0FE0
0FF0
1EF8
3C78
3C3C
783E
F81E
F01F
ENDCHAR
STARTCHAR 0059
ENCODING 89
SWIDTH 644 0
DWIDTH 17 0
BBX 16 19 1 0
BITMAP
F00F
F01E
781E
783C
3C78
3E78
1EF0
0FF0
0FE0
07C0
07C0
0380
0380
0380
0380
0380
0380
0380
0380
ENDCHAR
STARTCHAR 005A
ENCODING 90
SWIDTH 644 0
DWIDTH 17 0
BBX 15 19 1 0
BITMAP
FFFE
FFFE
FFFE
003E
007C
00F8
01F0
03E0
03C0
07C0
0F80
1F00
3E00
3C00
7C00
F800
FFFE
FFFE
FFFE
ENDCHAR
STARTCHAR 005B
ENCODING 91
SWIDTH 303 0
DWIDTH 8 0
BBX 6 26 2 -4
BITMAP
FC
FC
FC
E0
E0
E0
E0
E0
E0
E0
E0
E0
E0
E0
E0
E0
E0
E0
E0
E0
E0
E0
E0
FC
FC
FC
ENDCHAR
STARTCHAR 005C
ENCODING 92
SWIDTH 492 0
DWIDTH 13 0
BBX 12 19 0 0
BITMAP
E000
7000
7000
3800
3800
1C00
1C00
0E00
0E00
0700
0700
0380
0380
01C0
01C0
00E0
00E0
0070
0070
ENDCHAR
STARTCHAR 005D
ENCODING 93
SWIDTH 303 0
DWIDTH 8 0
BBX 6 26 0 -4
BITMAP
FC
FC
FC
1C
1C
1C
1C
1C
1C
1C
1C
1C
1C
1C
1C
1C
1C
1C
1C
1C
1C
1C
1C
FC
FC
FC
ENDCHAR
STARTCHAR 005E
ENCODING 94
SWIDTH 530 0
DWIDTH 14 0
BBX 12 10 1 9
BITMAP
0F00
0F00
1F80
1F80
3FC0
39C0
79E0
70E0
F0F0
E070
ENDCHAR
STARTCHAR 005F
ENCODING 95
SWIDTH 530 0
DWIDTH 14 0
BBX 14 3 0 -3
BITMAP
FFFC
FFFC
FFFC
ENDCHAR
STARTCHAR 0060
ENCODING 96
SWIDTH 303 0
DWIDTH 8 0
BBX 6 4 1 15
BITMAP
F0
78
38
1C
ENDCHAR
STARTCHAR 0061
ENCODING 97
SWIDTH 530 0
DWIDTH 14 0
BBX 12 13 1 0
BITMAP
1F80
3FC0
7FE0
70E0
30F0
03F0
3FF0
7EF0
F0F0
F0F0
F9F0
7FF0
3EF0
ENDCHAR
STARTCHAR 0062
ENCODING 98
SWIDTH 606 0
DWIDTH 16 0
BBX 13 19 2 0
BITMAP
E000
E000
E000
E000
E000
E000
E7C0
EFE0
FFF0
F8F8
F078
E038
E038
E038
F078
F878
FFF0
FFE0
E7C0
ENDCHAR
STARTCHAR 0063
ENCODING 99
SWIDTH 568 0
DWIDTH 15 0
BBX 13 13 1 0
BITMAP
0F80
3FE0
7FF0
78F0
F070
F000
E000
F000
F070
78F8
7FF0
3FE0
0F80
ENDCHAR
STARTCHAR 0064
ENCODING 100
SWIDTH 606 0
DWIDTH 16 0
BBX 13 19 1 0
BITMAP
0038
0038
0038
0038
0038
0038
0FB8
3FF8
7FF8
78F8
F078
F038
E038
F038
F078
7878
7FF8
3FF8
0F38
ENDCHAR
STARTCHAR 0065
ENCODING 101
SWIDTH 568 0
DWIDTH 15 0
BBX 13 13 1 0
BITMAP
0F80
3FE0
7FF0
70F0
F078
FFF8
FFF8
E000
F040
7870
7FF0
3FE0
0F80
ENDCHAR
STARTCHAR 0066
ENCODING 102
SWIDTH 341 0
DWIDTH 9 0
BBX 9 19 0 0
BITMAP
0780
0F80
1F80
1C00
1C00
1C00
FF80
FF80
FF80
1C00
1C00
1C00
1C00
1C00
1C00
1C00
1C00
1C00
1C00
ENDCHAR
STARTCHAR 0067
ENCODING 103
SWIDTH 606 0
DWIDTH 16 0
BBX 13 18 1 -5
BITMAP
0F38
3FF8
7FF8
78F8
F078
F038
F038
F078
F8F8
7FF8
3FF8
1F38
0038
F078
F8F0
7FF0
3FE0
1F80
ENDCHAR
STARTCHAR 0068
ENCODING 104
SWIDTH 568 0
DWIDTH 15 0
BBX 12 19 2 0
BITMAP
E000
E000
E000
E000
E000
E000
E780
FFE0
FFE0
F9F0
F0F0
E0F0
E0F0
E0F0
E0F0
E0F0
E0F0
E0F0
E0F0
ENDCHAR
STARTCHAR 0069
ENCODING 105
SWIDTH 265 0
DWIDTH 7 0
BBX 5 19 1 0
BITMAP
70
78
F8
70
00
00
70
70
70
70
70
70
70
70
70
70
70
70
70
ENDCHAR
STARTCHAR 006A
ENCODING 106
SWIDTH 265 0
DWIDTH 7 0
BBX 7 24 -1 -5
BITMAP
1C
1E
3E
1C
00
00
1C
1C
1C
1C
1C
1C
1C
1C
1C
1C
1C
1C
1C
1C
1C
FC
FC
F0
ENDCHAR
STARTCHAR 006B
ENCODING 107
SWIDTH 568 0
DWIDTH 15 0
BBX 12 19 2 0
BITMAP
E000
E000
E000
E000
E000
E000
E1F0
E3E0
E3C0
E780
EF00
FE00
FF00
FF80
F780
E3C0
E1E0
E1F0
E0F0
ENDCHAR
STARTCHAR 006C
ENCODING 108
SWIDTH 265 0
DWIDTH 7 0
BBX 3 19 2 0
BITMAP
E0
E0
E0
E0
E0
E0
E0
E0
E0
E0
E0
E0
E0
E0
E0
E0
E0
E0
E0
ENDCHAR
STARTCHAR 006D
ENCODING 109
SWIDTH 871 0
DWIDTH 23 0
BBX 20 13 2 0
BITMAP
E78780
EFFFE0
FFFFE0
F1F0F0
F0F0F0
E0F0F0
E0F0F0
E0F0F0
E0F0F0
E0F0F0
E0F0F0
E0F0F0
E0F0F0
ENDCHAR
STARTCHAR 006E
ENCODING 110
SWIDTH 568 0
DWIDTH 15 0
BBX 12 13 2 0
BITMAP
E780
EFE0
FFE0
F9F0
F0F0
E0F0
E0F0
E0F0
E0F0
E0F0
E0F0
E0F0
E0F0
ENDCHAR
STARTCHAR 006F
ENCODING 111
SWIDTH 568 0
DWIDTH 15 0
BBX 14 13 1 0
BITMAP
0F80
3FE0
7FF0
78F8
F078
F038
E03C
F038
F078
78F8
7FF0
3FE0
0F80
ENDCHAR
STARTCHAR 0070
ENCODING 112
SWIDTH 606 0
DWIDTH 16 0
BBX 13 18 2 -5
BITMAP
E7C0
EFE0
FFF0
F8F8
F078
E038
E038
F038
F078
F8F8
FFF0
FFE0
E7C0
E000
E000
E000
E000
E000
ENDCHAR
STARTCHAR 0071
ENCODING 113
SWIDTH 606 0
DWIDTH 16 0
BBX 13 18 1 -5
BITMAP
0FB8
3FF8
7FF8
78F8
F078
F038
E038
F038
F078
78F8
7FF8
3FF8
0FB8
0038
0038
0038
0038
0038
ENDCHAR
STARTCHAR 0072
ENCODING 114
SWIDTH 378 0
DWIDTH 10 0
BBX 8 13 2 0
BITMAP
E7
EF
FF
FC
F0
F0
E0
E0
E0
E0
E0
E0
E0
ENDCHAR
STARTCHAR 0073
ENCODING 115
SWIDTH 454 0
DWIDTH 12 0
BBX 10 13 1 0
BITMAP
1F00
7F80
7FC0
E1C0
F000
FE00
7F80
1FC0
01C0
E1C0
FFC0
7F80
1F00
ENDCHAR
STARTCHAR 0074
ENCODING 116
SWIDTH 378 0
DWIDTH 10 0
BBX 9 17 0 0
BITMAP
1C00
1C00
1C00
3C00
FF80
FF80
FF80
1C00
1C00
1C00
1C00
1C00
1C00
1E00
1F80
1F80
0780
ENDCHAR
STARTCHAR 0075
ENCODING 117
SWIDTH 568 0
DWIDTH 15 0
BBX 12 13 2 0
BITMAP
E0F0
E0F0
E0F0
E0F0
E0F0
E0F0
E0F0
E0F0
E0F0
F1F0
FFF0
7FF0
3EF0
ENDCHAR
STARTCHAR 0076
ENCODING 118
SWIDTH 530 0
DWIDTH 14 0
BBX 14 13 0 0
BITMAP
F03C
783C
7838
3878
3C70
3CF0
1EF0
1EE0
0FE0
0FC0
07C0
07C0
0780
ENDCHAR
STARTCHAR 0077
ENCODING 119
SWIDTH 833 0
DWIDTH 22 0
BBX 21 13 0 0
BITMAP
F07838
707838
78FC78
78FC78
38FC70
3DFE70
3DCEF0
1DCEE0
1FCFE0
1F87E0
0F87C0
0F83C0
0F03C0
ENDCHAR
STARTCHAR 0078
ENCODING 120
SWIDTH 530 0
DWIDTH 14 0
BBX 12 13 1 0
BITMAP
F0F0
F8F0
79E0
3FC0
3F80
1F80
0F00
1F80
3FC0
3FC0
79E0
F0F0
F0F0
ENDCHAR
STARTCHAR 0079
ENCODING 121
SWIDTH 568 0
DWIDTH 15 0
BBX 14 18 0 -5
BITMAP
F01C
783C
7838
3C78
3C70
1EF0
1EF0
0FE0
0FE0
07C0
07C0
0380
0780
0700
0F00
0F00
1E00
1E00
ENDCHAR
STARTCHAR 007A
ENCODING 122
SWIDTH 492 0
DWIDTH 13 0
BBX 11 13 1 0
BITMAP
FFE0
FFE0
FFE0
03C0
0780
0F00
1E00
3C00
7C00
F800
FFE0
FFE0
FFE0
ENDCHAR
STARTCHAR 007B
ENCODING 123
SWIDTH 378 0
DWIDTH 10 0
BBX 9 26 1 -4
BITMAP
0180
0F80
0F80
1C00
1C00
1C00
1C00
1C00
1C00
1C00
1C00
3C00
F800
E000
F800
3C00
1C00
1C00
1C00
1C00
1C00
1C00
1C00
1F80
0F80
0780
ENDCHAR
STARTCHAR 007C
ENCODING 124
SWIDTH 265 0
DWIDTH 7 0
BBX 3 25 2 -4
BITMAP
E0
E0
E0
E0
E0
E0
E0
E0
E0
E0
E0
E0
E0
E0
E0
E0
E0
E0
E0
E0
E0
E0
E0
E0
E0
ENDCHAR
STARTCHAR 007D
ENCODING 125
SWIDTH 378 0
DWIDTH 10 0
BBX 9 26 0 -4
BITMAP
C000
F800
F800
3C00
1C00
1C00
1C00
1C00
1C00
1C00
1C00
1E00
0F80
0380
0F80
1E00
1C00
1C00
1C00
1C00
1C00
1C00
1C00
FC00
F800
E000
ENDCHAR
STARTCHAR 007E
ENCODING 126
SWIDTH 568 0
DWIDTH 15 0
BBX 14 5 1 5
BITMAP
3C00
7F18
FFFC
43F8
01E0
ENDCHAR
STARTCHAR 00A0
ENCODING 160
SWIDTH 265 0
DWIDTH 7 0
BBX 0 0 0 0
BITMAP
ENDCHAR
STARTCHAR 00A1
ENCODING 161
SWIDTH 303 0
DWIDTH 8 0
BBX 4 19 2 -6
BITMAP
60
F0
F0
F0
00
00
60
60
60
F0
F0
F0
F0
F0
F0
F0
F0
F0
F0
ENDCHAR
STARTCHAR 00A2
ENCODING 162
SWIDTH 530 0
DWIDTH 14 0
BBX 12 17 1 0
BITMAP
0700
0700
0700
1FE0
3FF0
78F0
F070
F000
E000
F000
F060
78F0
7FF0
3FE0
0F80
0700
0700
ENDCHAR
STARTCHAR 00A3
ENCODING 163
SWIDTH 606 0
DWIDTH 16 0
BBX 13 17 2 0
BITMAP
0F80
3FE0
3FE0
78F0
7070
7000
7800
FFC0
FFC0
FFC0
3C00
3C00
3838
7078
FFF8
FFF0
FFE0
ENDCHAR
STARTCHAR 00A4
ENCODING 164
SWIDTH 568 0
DWIDTH 15 0
BBX 13 13 1 0
BITMAP
2010
F7B8
FFF8
7FF0
38F0
7070
7030
7070
7870
7FF0
FFF8
F7B8
2010
ENDCHAR
STARTCHAR 00A5
ENCODING 165
SWIDTH 606 0
DWIDTH 16 0
BBX 14 17 1 0
BITMAP
F01C
703C
7878
3C70
3CF0
1EE0
0FE0
7FFC
7FFC
0780
0780
7FFC
7FFC
0780
0780
0780
0780
ENDCHAR
STARTCHAR 00A6
ENCODING 166
SWIDTH 265 0
DWIDTH 7 0
BBX 3 25 2 -4
BITMAP
E0
E0
E0
E0
E0
E0
E0
E0
E0
E0
00
00
00
00
00
E0
E0
E0
E0
E0
E0
E0
E0
E0
E0
ENDCHAR
STARTCHAR 00A7
ENCODING 167
SWIDTH 568 0
DWIDTH 15 0
BBX 11 25 2 -6
BITMAP
1F00
7FC0
7FC0
F1E0
E0E0
F000
F000
7C00
7F00
7FC0
F7C0
E3E0
E0E0
F0E0
FDC0
7FC0
1FC0
0FC0
03E0
01E0
E1E0
F1E0
FFC0
7F80
1F00
ENDCHAR
STARTCHAR 00A8
ENCODING 168
SWIDTH 416 0
DWIDTH 11 0
BBX 9 4 1 15
BITMAP
4300
E780
E780
E300
ENDCHAR
STARTCHAR 00A9
ENCODING 169
SWIDTH 833 0
DWIDTH 22 0
BBX 20 19 1 0
BITMAP
01F800
07FE00
1E0F00
380380
3001C0
61F8E0
63FC60
E71C60
C70060
C60070
C70060
E71C60
63FC60
61F8E0
7001C0
380380
1E0F00
07FE00
01F800
ENDCHAR
STARTCHAR 00AA
ENCODING 170
SWIDTH 416 0
DWIDTH 11 0
BBX 9 9 1 8
BITMAP
1E00
7F00
6380
0380
3F80
7380
E380
7F80
3B80
ENDCHAR
STARTCHAR 00AB
ENCODING 171
SWIDTH 530 0
DWIDTH 14 0
BBX 12 10 1 3
BITMAP
1C70
3CE0
39E0
71C0
E380
E380
73C0
79E0
3CE0
1C70
ENDCHAR
STARTCHAR 00AC
ENCODING 172
SWIDTH 606 0
DWIDTH 16 0
BBX 13 8 1 4
BITMAP
FFF8
FFF8
FFF8
0038
0038
0038
0038
0038
ENDCHAR
STARTCHAR 00AD
ENCODING 173
SWIDTH 378 0
DWIDTH 10 0
BBX 8 3 1 6
BITMAP
FF
FF
FF
ENDCHAR
STARTCHAR 00AE
ENCODING 174
SWIDTH 833 0
DWIDTH 22 0
BBX 20 19 1 0
BITMAP
01F800
0FFE00
1E0F80
3803C0
73F1C0
63F8E0
E39C60
E39C60
C39C60
C3F870
C3F060
E3B860
63B860
739CE0
3001C0
380380
1E0F00
07FE00
01F800
ENDCHAR
STARTCHAR 00AF
ENCODING 175
SWIDTH 341 0
DWIDTH 9 0
BBX 7 3 1 15
BITMAP
FE
FE
FE
ENDCHAR
STARTCHAR 00B0
ENCODING 176
SWIDTH 378 0
DWIDTH 10 0
BBX 8 8 1 9
BITMAP
3C
7E
FF
C7
C3
E7
FF
7E
ENDCHAR
STARTCHAR 00B1
ENCODING 177
SWIDTH 606 0
DWIDTH 16 0
BBX 12 13 2 1
BITMAP
0E00
0E00
0E00
FFF0
FFF0
FFF0
0E00
0E00
0E00
0000
FFF0
FFF0
FFF0
ENDCHAR
STARTCHAR 00B2
ENCODING 178
SWIDTH 378 0
DWIDTH 10 0
BBX 8 10 1 9
BITMAP
3C
7E
67
E7
0F
1E
38
70
FF
FF
ENDCHAR
STARTCHAR 00B3
ENCODING 179
SWIDTH 416 0
DWIDTH 11 0
BBX 9 10 1 9
BITMAP
7F00
7F00
0700
1C00
1F00
1700
2380
F700
7F00
3E00
ENDCHAR
STARTCHAR 00B4
ENCODING 180
SWIDTH 303 0
DWIDTH 8 0
BBX 6 4 1 15
BITMAP
3C
78
70
E0
ENDCHAR
STARTCHAR 00B5
ENCODING 181
SWIDTH 606 0
DWIDTH 16 0
BBX 12 18 2 -5
BITMAP
E0F0
E0F0
E0F0
E0F0
E0F0
E0F0
E0F0
E0F0
F0F0
F0F0
FFF0
FFF0
FEF0
E000
E000
E000
E000
E000
ENDCHAR
STARTCHAR 00B6
ENCODING 182
SWIDTH 682 0
DWIDTH 18 0
BBX 16 24 1 -5
BITMAP
1FFF
7FFF
7FFF
FF1C
FF1C
FF1C
FF1C
FF1C
7F1C
7F1C
1F1C
031C
031C
031C
031C
031C
031C
031C
031C
031C
031C
031C
031C
031C
ENDCHAR
STARTCHAR 00B7
ENCODING 183
SWIDTH 303 0
DWIDTH 8 0
BBX 4 4 2 6
BITMAP
E0
F0
F0
E0
ENDCHAR
STARTCHAR 00B8
ENCODING 184
SWIDTH 303 0
DWIDTH 8 0
BBX 6 6 1 -6
BITMAP
30
70
3C
0C
FC
78
ENDCHAR
STARTCHAR 00B9
ENCODING 185
SWIDTH 303 0
DWIDTH 8 0
BBX 5 10 1 9
BITMAP
18
38
F8
F8
38
38
38
38
38
38
ENDCHAR
STARTCHAR 00BA
ENCODING 186
SWIDTH 492 0
DWIDTH 13 0
BBX 9 9 2 8
BITMAP
3E00
7F00
F780
E380
C180
C380
E380
FF00
7E00
ENDCHAR
STARTCHAR 00BB
ENCODING 187
SWIDTH 530 0
DWIDTH 14 0
BBX 12 10 1 3
BITMAP
E380
F3C0
79C0
38E0
1CF0
1CF0
38E0
79C0
73C0
E380
ENDCHAR
STARTCHAR 00BC
ENCODING 188
SWIDTH 795 0
DWIDTH 21 0
BBX 19 17 1 0
BITMAP
180700
380700
F80E00
F81C00
183C00
183800
187000
18E000
18E3C0
19C7C0
038FC0
079DC0
0739C0
0E3FE0
1C3FE0
1C01C0
3801C0
ENDCHAR
STARTCHAR 00BD
ENCODING 189
SWIDTH 833 0
DWIDTH 22 0
BBX 20 17 1 0
BITMAP
180700
380700
F80E00
F81C00
183800
183800
187000
18E3C0
18E7E0
19CE60
038C60
0780E0
0703C0
0E0780
1C0E00
1C0FF0
380FF0
ENDCHAR
STARTCHAR 00BE
ENCODING 190
SWIDTH 871 0
DWIDTH 23 0
BBX 21 17 1 0
BITMAP
7F01E0
7F01C0
0F0380
1C0700
1F0700
170E00
231C00
F73CF0
7F38F0
3E71F0
00E3F0
00E770
01CE70
038FF8
038FF8
070070
0E0070
ENDCHAR
STARTCHAR 00BF
ENCODING 191
SWIDTH 492 0
DWIDTH 13 0
BBX 13 19 0 -6
BITMAP
0300
0780
0780
0700
0000
0000
0700
0700
0F00
1F00
3C00
7800
7078
F078
F078
78F0
7FF0
3FE0
0F80
ENDCHAR
STARTCHAR 00C0
ENCODING 192
SWIDTH 720 0
DWIDTH 19 0
BBX 19 23 0 0
BITMAP
078000
03C000
00E000
000000
01F000
01F000
03F800
03F800
03B800
07BC00
07BC00
071C00
0F1E00
0E1E00
1E0F00
1FFF00
1FFF00
3FFF80
3C0780
380380
7803C0
7803C0
F001E0
ENDCHAR
STARTCHAR 00C1
ENCODING 193
SWIDTH 720 0
DWIDTH 19 0
BBX 19 23 0 0
BITMAP
003C00
007800
00E000
000000
01F000
01F000
03F800
03F800
03B800
07BC00
07BC00
071C00
0F1E00
0E1E00
1E0F00
1FFF00
1FFF00
3FFF80
3C0780
380380
7803C0
7803C0
F001E0
ENDCHAR
STARTCHAR 00C2
ENCODING 194
SWIDTH 720 0
DWIDTH 19 0
BBX 19 23 0 0
BITMAP
01F000
03B800
071C00
000000
01F000
01F000
03F800
03F800
03B800
07BC00
07BC00
071C00
0F1E00
0E1E00
1E0F00
1FFF00
1FFF00
3FFF80
3C0780
380380
7803C0
7803C0
F001E0
ENDCHAR
STARTCHAR 00C3
ENCODING 195
SWIDTH 720 0
DWIDTH 19 0
BBX 19 24 0 0
BITMAP
038C00
07FC00
07FC00
063800
000000
01F000
01F000
03F800
03F800
03B800
07BC00
07BC00
071C00
0F1E00
0E1E00
1E0F00
1FFF00
1FFF00
3FFF80
3C0780
380380
7803C0
7803C0
F001E0
ENDCHAR
STARTCHAR 00C4
ENCODING 196
SWIDTH 720 0
DWIDTH 19 0
BBX 19 24 0 0
BITMAP
0E0E00
1E0F00
1E0F00
0C0600
000000
01F000
01F000
03F800
03F800
03B800
07BC00
07BC00
071C00
0F1E00
0E1E00
1E0F00
1FFF00
1FFF00
3FFF80
3C0780
380380
7803C0
7803C0
F001E0
ENDCHAR
STARTCHAR 00C5
ENCODING 197
SWIDTH 720 0
DWIDTH 19 0
BBX 19 24 0 0
BITMAP
00E000
01F000
03B800
031800
033800
03F800
01F000
03F800
03F800
03B800
07BC00
07BC00
071C00
0F1E00
0E1E00
1E0F00
1FFF00
1FFF00
3FFF80
3C0780
380380
7803C0
7803C0
F001E0
ENDCHAR
STARTCHAR 00C6
ENCODING 198
SWIDTH 1061 0
DWIDTH 28 0
BBX 25 19 1 0
BITMAP
001FFF80
001FFF80
003FFF80
007B8000
007B8000
00F38000
01F38000
01E38000
03C3FF80
07C3FF80
0783FF80
0F838000
1FFF8000
1FFF8000
3FFF8000
7C038000
7803FF80
F803FF80
F003FF80
ENDCHAR
STARTCHAR 00C7
ENCODING 199
SWIDTH 757 0
DWIDTH 20 0
BBX 18 25 1 -6
BITMAP
01F800
0FFE00
1FFF00
3FFF80
3C07C0
7803C0
780380
F00000
F00000
F00000
F00000
F00000
F00100
7803C0
7C07C0
3F0F80
1FFF00
0FFE00
07FC00
006000
00E000
00F800
013800
03F800
01F000
ENDCHAR
STARTCHAR 00C8
ENCODING 200
SWIDTH 568 0
DWIDTH 15 0
BBX 12 23 2 0
BITMAP
3C00
1E00
0700
0000
FFF0
FFF0
FFF0
F000
F000
F000
F000
F000
FFE0
FFE0
FFE0
F000
F000
F000
F000
F000
FFF0
FFF0
FFF0
ENDCHAR
STARTCHAR 00C9
ENCODING 201
SWIDTH 568 0
DWIDTH 15 0
BBX 12 23 2 0
BITMAP
03C0
0780
0F00
0000
FFF0
FFF0
FFF0
F000
F000
F000
F000
F000
FFE0
FFE0
FFE0
F000
F000
F000
F000
F000
FFF0
FFF0
FFF0
ENDCHAR
STARTCHAR 00CA
ENCODING 202
SWIDTH 568 0
DWIDTH 15 0
BBX 12 23 2 0
BITMAP
1F80
3F80
79C0
0000
FFF0
FFF0
FFF0
F000
F000
F000
F000
F000
FFE0
FFE0
FFE0
F000
F000
F000
F000
F000
FFF0
FFF0
FFF0
ENDCHAR
STARTCHAR 00CB
ENCODING 203
SWIDTH 568 0
DWIDTH 15 0
BBX 12 24 2 0
BITMAP
30C0
79E0
79E0
30C0
0000
FFF0
FFF0
FFF0
F000
F000
F000
F000
F000
FFE0
FFE0
FFE0
F000
F000
F000
F000
F000
FFF0
FFF0
FFF0
ENDCHAR
STARTCHAR 00CC
ENCODING 204
SWIDTH 303 0
DWIDTH 8 0
BBX 7 23 -1 0
BITMAP
F8
3C
1C
00
1E
1E
1E
1E
1E
1E
1E
1E
1E
1E
1E
1E
1E
1E
1E
1E
1E
1E
1E
ENDCHAR
STARTCHAR 00CD
ENCODING 205
SWIDTH 303 0
DWIDTH 8 0
BBX 7 23 2 0
BITMAP
3E
78
70
00
F0
F0
F0
F0
F0
F0
F0
F0
F0
F0
F0
F0
F0
F0
F0
F0
F0
F0
F0
ENDCHAR
STARTCHAR 00CE
ENCODING 206
SWIDTH 303 0
DWIDTH 8 0
BBX 9 23 0 0
BITMAP
7E00
7F00
E780
0000
3C00
3C00
3C00
3C00
3C00
3C00
3C00
3C00
3C00
3C00
3C00
3C00
3C00
3C00
3C00
3C00
3C00
3C00
3C00
ENDCHAR
STARTCHAR 00CF
ENCODING 207
SWIDTH 303 0
DWIDTH 8 0
BBX 8 24 0 0
BITMAP
E7
E7
E7
42
00
3C
3C
3C
3C
3C
3C
3C
3C
3C
3C
3C
3C
3C
3C
3C
3C
3C
3C
3C
ENDCHAR
STARTCHAR 00D0
ENCODING 208
SWIDTH 757 0
DWIDTH 20 0
BBX 19 19 0 0
BITMAP
1FF800
1FFE00
1FFF00
1C3F80
1C07C0
1C03C0
1C03C0
1C01E0
FFC1E0
FFC1E0
FFC1E0
1C01E0
1C03C0
1C03C0
1C07C0
1C3F80
1FFF00
1FFE00
1FF800
ENDCHAR
STARTCHAR 00D1
ENCODING 209
SWIDTH 757 0
DWIDTH 20 0
BBX 16 24 2 0
BITMAP
0718
0FB8
0DF0
0CE0
0000
F80F
FC0F
FC0F
FE0F
FE0F
FF0F
FF8F
F78F
F3CF
F3EF
F1EF
F0FF
F0FF
F07F
F07F
F03F
F01F
F01F
F00F
ENDCHAR
STARTCHAR 00D2
ENCODING 210
SWIDTH 795 0
DWIDTH 21 0
BBX 19 23 1 0
BITMAP
078000
03C000
00E000
000000
01F800
0FFE00
1FFF00
3FFF80
7C07C0
7803C0
7801E0
F001E0
F001E0
F001E0
F001E0
F001E0
F801E0
7803C0
7C07C0
3FFF80
1FFF00
0FFE00
03F800
ENDCHAR
STARTCHAR 00D3
ENCODING 211
SWIDTH 795 0
DWIDTH 21 0
BBX 19 23 1 0
BITMAP
003C00
007800
00F000
000000
01F800
0FFE00
1FFF00
3FFF80
7C07C0
7803C0
7801E0
F001E0
F001E0
F001E0
F001E0
F001E0
F801E0
7803C0
7C07C0
3FFF80
1FFF00
0FFE00
03F800
ENDCHAR
STARTCHAR 00D4
ENCODING 212
SWIDTH 795 0
DWIDTH 21 0
BBX 19 23 1 0
BITMAP
01F000
03B800
071C00
000000
01F800
0FFE00
1FFF00
3FFF80
7C07C0
7803C0
7801E0
F001E0
F001E0
F001E0
F001E0
F001E0
F801E0
7803C0
7C07C0
3FFF80
1FFF00
0FFE00
03F800
ENDCHAR
STARTCHAR 00D5
ENCODING 213
SWIDTH 795 0
DWIDTH 21 0
BBX 19 23 1 0
BITMAP
03EC00
07FC00
067800
000000
01F800
0FFE00
1FFF00
3FFF80
7C07C0
7803C0
7801E0
F001E0
F001E0
F001E0
F001E0
F001E0
F801E0
7803C0
7C07C0
3FFF80
1FFF00
0FFE00
03F800
ENDCHAR
STARTCHAR 00D6
ENCODING 214
SWIDTH 795 0
DWIDTH 21 0
BBX 19 24 1 0
BITMAP
0C0600
1E0F00
1E0F00
0E0600
000000
01F800
0FFE00
1FFF00
3FFF80
7C07C0
7803C0
7801E0
F001E0
F001E0
F001E0
F001E0
F001E0
F801E0
7803C0
7C07C0
3FFF80
1FFF00
0FFE00
03F800
ENDCHAR
STARTCHAR 00D7
ENCODING 215
SWIDTH 568 0
DWIDTH 15 0
BBX 12 13 1 1
BITMAP
2020
7070
F8F0
7DE0
3FC0
1F80
0F80
1FC0
3FC0
7DE0
F8F0
7070
2020
ENDCHAR
STARTCHAR 00D8
ENCODING 216
SWIDTH 795 0
DWIDTH 21 0
BBX 19 21 1 -1
BITMAP
000080
01F9C0
0FFFC0
1FFF80
3FFF80
7C0FC0
781FC0
783DE0
F079E0
F071E0
F0E1E0
F1E1E0
F3C1E0
FF81E0
7F03C0
7E07C0
3FFF80
3FFF00
7FFE00
73F800
200000
ENDCHAR
STARTCHAR 00D9
ENCODING 217
SWIDTH 682 0
DWIDTH 18 0
BBX 14 23 2 0
BITMAP
1E00
0F00
0780
0000
F01C
F01C
F01C
F01C
F01C
F01C
F01C
F01C
F01C
F01C
F01C
F01C
F01C
F03C
F83C
7FFC
7FF8
3FF0
0FC0
ENDCHAR
STARTCHAR 00DA
ENCODING 218
SWIDTH 682 0
DWIDTH 18 0
BBX 14 23 2 0
BITMAP
01E0
03C0
0780
0000
F01C
F01C
F01C
F01C
F01C
F01C
F01C
F01C
F01C
F01C
F01C
F01C
F01C
F03C
F83C
7FFC
7FF8
3FF0
0FC0
ENDCHAR
STARTCHAR 00DB
ENCODING 219
SWIDTH 682 0
DWIDTH 18 0
BBX 14 23 2 0
BITMAP
07C0
0FE0
1CF0
0000
F01C
F01C
F01C
F01C
F01C
F01C
F01C
F01C
F01C
F01C
F01C
F01C
F01C
F03C
F83C
7FFC
7FF8
3FF0
0FC0
ENDCHAR
STARTCHAR 00DC
ENCODING 220
SWIDTH 682 0
DWIDTH 18 0
BBX 14 24 2 0
BITMAP
1870
3CF0
3C70
1860
0000
F01C
F01C
F01C
F01C
F01C
F01C
F01C
F01C
F01C
F01C
F01C
F01C
F01C
F03C
F83C
7FFC
7FF8
3FF0
0FC0
ENDCHAR
STARTCHAR 00DD
ENCODING 221
SWIDTH 644 0
DWIDTH 17 0
BBX 16 23 1 0
BITMAP
00F0
01E0
0380
0000
F00F
F01E
781E
783C
3C78
3E78
1EF0
0FF0
0FE0
07C0
07C0
0380
0380
0380
0380
0380
0380
0380
0380
ENDCHAR
STARTCHAR 00DE
ENCODING 222
SWIDTH 606 0
DWIDTH 16 0
BBX 13 19 2 0
BITMAP
F000
F000
F000
F000
FFC0
FFF0
FFF0
F078
F078
F038
F078
F078
FFF0
FFE0
FFC0
F000
F000
F000
F000
ENDCHAR
STARTCHAR 00DF
ENCODING 223
SWIDTH 606 0
DWIDTH 16 0
BBX 13 19 2 0
BITMAP
0F80
3FE0
7FF0
F8F0
F070
E070
E0F0
E3E0
E3C0
E780
E780
E7E0
E3F0
E1F8
E038
EE38
EFF8
E7F0
E3E0
ENDCHAR
STARTCHAR 00E0
ENCODING 224
SWIDTH 530 0
DWIDTH 14 0
BBX 12 18 1 0
BITMAP
3C00
1C00
0E00
0700
0000
1F80
3FC0
7FE0
70E0
30F0
03F0
3FF0
7EF0
F0F0
F0F0
F9F0
7FF0
3EF0
ENDCHAR
STARTCHAR 00E1
ENCODING 225
SWIDTH 530 0
DWIDTH 14 0
BBX 12 18 1 0
BITMAP
03C0
0380
0700
0700
0000
1F80
3FC0
7FE0
70E0
30F0
03F0
3FF0
7EF0
F0F0
F0F0
F9F0
7FF0
3EF0
ENDCHAR
STARTCHAR 00E2
ENCODING 226
SWIDTH 530 0
DWIDTH 14 0
BBX 12 18 1 0
BITMAP
0F00
1F80
3BC0
39C0
0000
1F80
3FC0
7FE0
70E0
30F0
03F0
3FF0
7EF0
F0F0
F0F0
F9F0
7FF0
3EF0
ENDCHAR
STARTCHAR 00E3
ENCODING 227
SWIDTH 530 0
DWIDTH 14 0
BBX 12 18 1 0
BITMAP
1C60
3FE0
3FC0
7380
0000
1F80
3FC0
7FE0
70E0
30F0
03F0
3FF0
7EF0
F0F0
F0F0
F9F0
7FF0
3EF0
ENDCHAR
STARTCHAR 00E4
ENCODING 228
SWIDTH 530 0
DWIDTH 14 0
BBX 12 18 1 0
BITMAP
38C0
79E0
79E0
30C0
0000
1F80
3FC0
7FE0
70E0
30F0
03F0
3FF0
7EF0
F0F0
F0F0
F9F0
7FF0
3EF0
ENDCHAR
STARTCHAR 00E5
ENCODING 229
SWIDTH 530 0
DWIDTH 14 0
BBX 12 20 1 0
BITMAP
0F00
1F80
1980
1980
1F00
0F00
0000
1F80
3FC0
7FE0
70E0
30F0
03F0
3FF0
7EF0
F0F0
F0F0
F9F0
7FF0
3EF0
ENDCHAR
STARTCHAR 00E6
ENCODING 230
SWIDTH 871 0
DWIDTH 23 0
BBX 21 13 1 0
BITMAP
1F8FC0
3FDFE0
7FFFF0
F0F878
00F078
0FFFF8
7FFFF8
7CF000
F0F020
F0F878
FFFFF0
7F9FE0
3F0F80
ENDCHAR
STARTCHAR 00E7
ENCODING 231
SWIDTH 568 0
DWIDTH 15 0
BBX 13 19 1 -6
BITMAP
0F80
3FE0
7FF0
78F0
F070
F000
E000
F000
F020
F878
7FF0
3FF0
1FC0
0300
0700
07C0
09C0
1FC0
0F80
ENDCHAR
STARTCHAR 00E8
ENCODING 232
SWIDTH 568 0
DWIDTH 15 0
BBX 13 18 1 0
BITMAP
3C00
1E00
0E00
0700
0000
0F80
3FE0
7FF0
70F0
F078
FFF8
FFF8
E000
F040
7870
7FF0
3FE0
0F80
ENDCHAR
STARTCHAR 00E9
ENCODING 233
SWIDTH 568 0
DWIDTH 15 0
BBX 13 18 1 0
BITMAP
01E0
03C0
0380
0700
0000
0F80
3FE0
7FF0
70F0
F078
FFF8
FFF8
E000
F040
7870
7FF0
3FE0
0F80
ENDCHAR
STARTCHAR 00EA
ENCODING 234
SWIDTH 568 0
DWIDTH 15 0
BBX 13 18 1 0
BITMAP
0F80
0F80
1DC0
38E0
0000
0F80
3FE0
7FF0
70F0
F078
FFF8
FFF8
E000
F040
7870
7FF0
3FE0
0F80
ENDCHAR
STARTCHAR 00EB
ENCODING 235
SWIDTH 568 0
DWIDTH 15 0
BBX 13 18 1 0
BITMAP
38C0
3DE0
39E0
18C0
0000
0F80
3FE0
7FF0
70F0
F078
FFF8
FFF8
E000
F040
7870
7FF0
3FE0
0F80
ENDCHAR
STARTCHAR 00EC
ENCODING 236
SWIDTH 265 0
DWIDTH 7 0
BBX 6 19 -1 0
BITMAP
F0
78
38
1C
00
00
1C
1C
1C
1C
1C
1C
1C
1C
1C
1C
1C
1C
1C
ENDCHAR
STARTCHAR 00ED
ENCODING 237
SWIDTH 265 0
DWIDTH 7 0
BBX 6 19 2 0
BITMAP
3C
38
70
E0
00
00
E0
E0
E0
E0
E0
E0
E0
E0
E0
E0
E0
E0
E0
ENDCHAR
STARTCHAR 00EE
ENCODING 238
SWIDTH 265 0
DWIDTH 7 0
BBX 9 18 -1 0
BITMAP
3E00
7F00
E380
0000
0000
1C00
1C00
1C00
1C00
1C00
1C00
1C00
1C00
1C00
1C00
1C00
1C00
1C00
ENDCHAR
STARTCHAR 00EF
ENCODING 239
SWIDTH 265 0
DWIDTH 7 0
BBX 9 19 -1 0
BITMAP
2300
7780
F780
6300
0000
0000
1C00
1C00
1C00
1C00
1C00
1C00
1C00
1C00
1C00
1C00
1C00
1C00
1C00
ENDCHAR
STARTCHAR 00F0
ENCODING 240
SWIDTH 568 0
DWIDTH 15 0
BBX 13 20 1 0
BITMAP
1800
1E10
3FF0
07F0
1FE0
1EF0
00F0
0778
3FF8
7FF8
78F8
F078
F038
E038
F038
F078
78F8
7FF0
3FE0
0F80
ENDCHAR
STARTCHAR 00F1
ENCODING 241
SWIDTH 568 0
DWIDTH 15 0
BBX 12 18 2 0
BITMAP
3CE0
3FC0
7FC0
6380
0000
E780
EFE0
FFE0
F9F0
F0F0
E0F0
E0F0
E0F0
E0F0
E0F0
E0F0
E0F0
E0F0
ENDCHAR
STARTCHAR 00F2
ENCODING 242
SWIDTH 568 0
DWIDTH 15 0
BBX 14 18 1 0
BITMAP
3C00
1E00
0E00
0700
0000
0F80
3FE0
7FF0
78F8
F078
F038
E03C
F038
F078
78F8
7FF0
3FE0
0F80
ENDCHAR
STARTCHAR 00F3
ENCODING 243
SWIDTH 568 0
DWIDTH 15 0
BBX 14 18 1 0
BITMAP
01E0
03C0
0380
0700
0000
0F80
3FE0
7FF0
78F8
F078
F038
E03C
F038
F078
78F8
7FF0
3FE0
0F80
ENDCHAR
STARTCHAR 00F4
ENCODING 244
SWIDTH 568 0
DWIDTH 15 0
BBX 14 18 1 0
BITMAP
0780
0FC0
1DC0
38E0
0000
0F80
3FE0
7FF0
78F8
F078
F038
E03C
F038
F078
78F8
7FF0
3FE0
0F80
ENDCHAR
STARTCHAR 00F5
ENCODING 245
SWIDTH 568 0
DWIDTH 15 0
BBX 14 18 1 0
BITMAP
1E60
3FE0
3FE0
31C0
0000
0F80
3FE0
7FF0
78F8
F078
F038
E03C
F038
F078
78F8
7FF0
3FE0
0F80
ENDCHAR
STARTCHAR 00F6
ENCODING 246
SWIDTH 568 0
DWIDTH 15 0
BBX 14 18 1 0
BITMAP
18E0
3CE0
3CE0
1840
0000
0F80
3FE0
7FF0
78F8
F078
F038
E03C
F038
F078
78F8
7FF0
3FE0
0F80
ENDCHAR
STARTCHAR 00F7
ENCODING 247
SWIDTH 568 0
DWIDTH 15 0
BBX 13 14 1 1
BITMAP
0700
0780
0780
0700
0200
0000
FFF8
FFF8
FFF8
0000
0300
0780
0780
0700
ENDCHAR
STARTCHAR 00F8
ENCODING 248
SWIDTH 568 0
DWIDTH 15 0
BBX 14 15 1 -1
BITMAP
0010
0FB8
3FF8
7FF0
78F8
F1F8
F3B8
E73C
FE38
FC78
7CF8
7FF0
7FE0
EF80
4000
ENDCHAR
STARTCHAR 00F9
ENCODING 249
SWIDTH 568 0
DWIDTH 15 0
BBX 12 19 2 0
BITMAP
3C00
1C00
1E00
0E00
0000
0000
E0F0
E0F0
E0F0
E0F0
E0F0
E0F0
E0F0
E0F0
E0F0
F1F0
FFF0
7FF0
3EF0
ENDCHAR
STARTCHAR 00FA
ENCODING 250
SWIDTH 568 0
DWIDTH 15 0
BBX 12 19 2 0
BITMAP
0380
0780
0F00
0E00
0000
0000
E0F0
E0F0
E0F0
E0F0
E0F0
E0F0
E0F0
E0F0
E0F0
F1F0
FFF0
7FF0
3EF0
ENDCHAR
STARTCHAR 00FB
ENCODING 251
SWIDTH 568 0
DWIDTH 15 0
BBX 12 18 2 0
BITMAP
1F00
3F80
31C0
0000
0000
E0F0
E0F0
E0F0
E0F0
E0F0
E0F0
E0F0
E0F0
E0F0
F1F0
FFF0
7FF0
3EF0
ENDCHAR
STARTCHAR 00FC
ENCODING 252
SWIDTH 568 0
DWIDTH 15 0
BBX 12 19 2 0
BITMAP
3080
79C0
79C0
31C0
0000
0000
E0F0
E0F0
E0F0
E0F0
E0F0
E0F0
E0F0
E0F0
E0F0
F1F0
FFF0
7FF0
3EF0
ENDCHAR
STARTCHAR 00FD
ENCODING 253
SWIDTH 568 0
DWIDTH 15 0
BBX 14 24 0 -5
BITMAP
00E0
01E0
03C0
0380
0000
0000
F01C
783C
7838
3C78
3C70
1EF0
1EF0
0FE0
0FE0
07C0
07C0
0380
0780
0700
0F00
0F00
1E00
1E00
ENDCHAR
STARTCHAR 00FE
ENCODING 254
SWIDTH 606 0
DWIDTH 16 0
BBX 13 24 2 -5
BITMAP
E000
E000
E000
E000
E000
E000
E7C0
EFE0
FFF0
F8F8
F078
E038
E038
E038
F078
F8F8
FFF0
FFE0
E7C0
E000
E000
E000
E000
E000
ENDCHAR
STARTCHAR 00FF
ENCODING 255
SWIDTH 568 0
DWIDTH 15 0
BBX 14 24 0 -5
BITMAP
0C60
1CF0
1EF0
1C60
0000
0000
F01C
783C
7838
3C78
3C70
1EF0
1EF0
0FE0
0FE0
07C0
07C0
0380
0780
0700
0F00
0F00
1E00
1E00
ENDCHAR
STARTCHAR 0131
ENCODING 305
SWIDTH 265 0
DWIDTH 7 0
BBX 3 13 2 0
BITMAP
E0
E0
E0
E0
E0
E0
E0
E0
E0
E0
E0
E0
E0
ENDCHAR
STARTCHAR 0141
ENCODING 321
SWIDTH 568 0
DWIDTH 15 0
BBX 15 19 0 0
BITMAP
1C00
1C00
1C00
1C00
1C00
1C00
1CE0
1FE0
1FE0
3F00
FC00
FC00
DC00
1C00
1C00
1C00
1FFE
1FFE
1FFE
ENDCHAR
STARTCHAR 0142
ENCODING 322
SWIDTH 341 0
DWIDTH 9 0
BBX 8 19 0 0
BITMAP
1C
1C
1C
1C
1C
1C
1C
1D
1F
3F
FC
FC
DC
1C
1C
1C
1C
1C
1C
ENDCHAR
STARTCHAR 0152
ENCODING 338
SWIDTH 1136 0
DWIDTH 30 0
BBX 27 19 1 0
BITMAP
01F9FFE0
0FFFFFE0
1FFFFFE0
3F0FE000
7C07E000
7803E000
F001E000
F001E000
F001FFC0
F001FFC0
F001FFC0
F001E000
F001E000
7803E000
7C07E000
3F0FE000
1FFFFFE0
0FFFFFE0
03F9FFE0
ENDCHAR
STARTCHAR 0153
ENCODING 339
SWIDTH 947 0
DWIDTH 25 0
BBX 23 13 1 0
BITMAP
0F83E0
3FEFF8
7FFFFC
78FC1C
F07C1E
F03FFE
E03FFE
F03C00
F07C08
78FE1C
7FFFFC
3FEFF8
0F83E0
ENDCHAR
STARTCHAR 0160
ENCODING 352
SWIDTH 606 0
DWIDTH 16 0
BBX 14 23 1 0
BITMAP
1CF0
0FC0
0780
0000
0FC0
1FF0
3FF8
7CF8
703C
7020
7000
7C00
7FC0
3FF0
0FF8
00FC
003C
E03C
F03C
7C7C
7FF8
3FF0
0FC0
ENDCHAR
STARTCHAR 0161
ENCODING 353
SWIDTH 454 0
DWIDTH 12 0
BBX 10 18 1 0
BITMAP
7180
3B80
3F00
1E00
0000
1F00
7F80
7FC0
E1C0
F000
FE00
7F80
1FC0
01C0
E1C0
FFC0
7F80
1F00
ENDCHAR
STARTCHAR 0178
ENCODING 376
SWIDTH 644 0
DWIDTH 17 0
BBX 16 24 1 0
BITMAP
1C30
1C78
1C78
0C30
0000
F00F
F01E
781E
783C
3C78
3E78
1EF0
0FF0
0FE0
07C0
07C0
0380
0380
0380
0380
0380
0380
0380
0380
ENDCHAR
STARTCHAR 017D
ENCODING 381
SWIDTH 644 0
DWIDTH 17 0
BBX 15 23 1 0
BITMAP
1EF0
0FE0
07C0
0000
FFFE
FFFE
FFFE
003E
007C
00F8
01F0
03E0
03C0
07C0
0F80
1F00
3E00
3C00
7C00
F800
FFFE
FFFE
FFFE
ENDCHAR
STARTCHAR 017E
ENCODING 382
SWIDTH 492 0
DWIDTH 13 0
BBX 11 18 1 0
BITMAP
71C0
3F80
1F00
0000
0000
FFE0
FFE0
FFE0
03C0
0780
0F00
1E00
3C00
7C00
F800
FFE0
FFE0
FFE0
ENDCHAR
STARTCHAR 0192
ENCODING 402
SWIDTH 530 0
DWIDTH 14 0
BBX 14 23 -1 -4
BITMAP
003C
00FC
00FC
01E0
01E0
01C0
1FF8
1FF8
1FF8
03C0
0380
0780
0780
0780
0780
0700
0F00
0F00
0F00
1E00
FE00
FC00
F800
ENDCHAR
STARTCHAR 02C6
ENCODING 710
SWIDTH 416 0
DWIDTH 11 0
BBX 8 3 1 15
BITMAP
3E
7F
E3
ENDCHAR
STARTCHAR 02C7
ENCODING 711
SWIDTH 416 0
DWIDTH 11 0
BBX 9 3 1 15
BITMAP
E380
7F00
3E00
ENDCHAR
STARTCHAR 02C9
ENCODING 713
SWIDTH 341 0
DWIDTH 9 0
BBX 7 3 1 15
BITMAP
FE
FE
FE
ENDCHAR
STARTCHAR 02D8
ENCODING 728
SWIDTH 378 0
DWIDTH 10 0
BBX 8 3 1 15
BITMAP
C3
FF
7E
ENDCHAR
STARTCHAR 02D9
ENCODING 729
SWIDTH 189 0
DWIDTH 5 0
BBX 5 5 0 14
BITMAP
70
70
F8
70
70
ENDCHAR
STARTCHAR 02DA
ENCODING 730
SWIDTH 265 0
DWIDTH 7 0
BBX 6 6 1 14
BITMAP
70
F8
CC
CC
F8
70
ENDCHAR
STARTCHAR 02DB
ENCODING 731
SWIDTH 227 0
DWIDTH 6 0
BBX 4 6 1 -6
BITMAP
70
E0
C0
E0
F0
70
ENDCHAR
STARTCHAR 02DC
ENCODING 732
SWIDTH 378 0
DWIDTH 10 0
BBX 9 4 1 14
BITMAP
7180
FF80
FF00
CE00
ENDCHAR
STARTCHAR 02DD
ENCODING 733
SWIDTH 378 0
DWIDTH 10 0
BBX 8 4 1 15
BITMAP
77
E7
EE
CC
ENDCHAR
STARTCHAR 0394
ENCODING 916
SWIDTH 682 0
DWIDTH 18 0
BBX 18 19 0 0
BITMAP
01E000
01F000
03F000
03F000
07F800
07B800
073C00
0F3C00
0F1C00
0E1E00
1E1E00
1C0E00
3C0F00
3C0F00
380780
780780
7FFF80
7FFFC0
FFFFC0
ENDCHAR
STARTCHAR 03A9
ENCODING 937
SWIDTH 795 0
DWIDTH 21 0
BBX 18 19 1 0
BITMAP
03F800
0FFE00
1FFF00
3FBF80
7C07C0
7803C0
F003C0
F001C0
F001C0
F001C0
F003C0
7803C0
7C0780
3E0F80
1F3F00
073C00
FF3FC0
FF3FC0
FF3FC0
ENDCHAR
STARTCHAR 03BC
ENCODING 956
SWIDTH 606 0
DWIDTH 16 0
BBX 12 18 2 -5
BITMAP
E0F0
E0F0
E0F0
E0F0
E0F0
E0F0
E0F0
E0F0
F0F0
F0F0
FFF0
FFF0
FEF0
E000
E000
E000
E000
E000
ENDCHAR
STARTCHAR 03C0
ENCODING 960
SWIDTH 644 0
DWIDTH 17 0
BBX 15 13 1 0
BITMAP
FFFE
FFFE
FFFE
3C78
3C78
3C78
3C78
3C78
3C78
3C78
3C7E
3C3E
3C1E
ENDCHAR
STARTCHAR 2007
ENCODING 8199
SWIDTH 606 0
DWIDTH 16 0
BBX 0 0 0 0
BITMAP
ENDCHAR
STARTCHAR 2008
ENCODING 8200
SWIDTH 303 0
DWIDTH 8 0
BBX 0 0 0 0
BITMAP
ENDCHAR
STARTCHAR 200B
ENCODING 8203
SWIDTH 0 0
DWIDTH 0 0
BBX 0 0 0 0
BITMAP
ENDCHAR
STARTCHAR 2013
ENCODING 8211
SWIDTH 644 0
DWIDTH 17 0
BBX 13 3 2 6
BITMAP
FFF8
FFF8
FFF8
ENDCHAR
STARTCHAR 2014
ENCODING 8212
SWIDTH 1098 0
DWIDTH 29 0
BBX 25 3 2 6
BITMAP
FFFFFF80
FFFFFF80
FFFFFF80
ENDCHAR
STARTCHAR 2018
ENCODING 8216
SWIDTH 227 0
DWIDTH 6 0
BBX 4 8 1 11
BITMAP
30
70
E0
C0
F0
F0
F0
60
ENDCHAR
STARTCHAR 2019
ENCODING 8217
SWIDTH 227 0
DWIDTH 6 0
BBX 4 8 1 11
BITMAP
60
F0
F0
70
30
30
E0
C0
ENDCHAR
STARTCHAR 201A
ENCODING 8218
SWIDTH 227 0
DWIDTH 6 0
BBX 4 8 1 -4
BITMAP
60
F0
F0
F0
30
30
E0
C0
ENDCHAR
STARTCHAR 201C
ENCODING 8220
SWIDTH 416 0
DWIDTH 11 0
BBX 9 8 1 11
BITMAP
3080
7380
E300
C600
F780
F780
F780
6300
ENDCHAR
STARTCHAR 201D
ENCODING 8221
SWIDTH 416 0
DWIDTH 11 0
BBX 9 8 1 11
BITMAP
6380
F780
F780
7380
3180
3180
E700
C600
ENDCHAR
STARTCHAR 201E
ENCODING 8222
SWIDTH 416 0
DWIDTH 11 0
BBX 9 8 1 -4
BITMAP
6300
F780
F780
F380
3180
3180
E700
C600
ENDCHAR
STARTCHAR 2020
ENCODING 8224
SWIDTH 416 0
DWIDTH 11 0
BBX 9 15 1 4
BITMAP
1C00
1C00
1C00
1C00
FF80
FF80
FF80
1C00
1C00
1C00
1C00
1C00
1C00
1C00
1C00
ENDCHAR
STARTCHAR 2021
ENCODING 8225
SWIDTH 454 0
DWIDTH 12 0
BBX 10 19 1 0
BITMAP
1C00
1C00
1C00
1C00
FFC0
FFC0
FFC0
1C00
1C00
1C00
1C00
1C00
FFC0
FFC0
FFC0
1C00
1C00
1C00
1C00
ENDCHAR
STARTCHAR 2022
ENCODING 8226
SWIDTH 530 0
DWIDTH 14 0
BBX 11 11 2 2
BITMAP
1E00
7F80
FFC0
FFC0
FFC0
FFE0
FFC0
FFC0
FFC0
7F80
1E00
ENDCHAR
STARTCHAR 2026
ENCODING 8230
SWIDTH 909 0
DWIDTH 24 0
BBX 20 4 2 0
BITMAP
707070
F0F0F0
F0F0F0
607070
ENDCHAR
STARTCHAR 2030
ENCODING 8240
SWIDTH 1098 0
DWIDTH 29 0
BBX 27 17 1 0
BITMAP
1E03C000
7F038000
77870000
E38E0000
E38E0000
E39C0000
7F380000
3E780000
00700000
00E3CF00
01C7FFC0
01CFFFC0
038C38E0
070C30E0
070FFFC0
0E07FFC0
1C03CF00
ENDCHAR
STARTCHAR 2039
ENCODING 8249
SWIDTH 303 0
DWIDTH 8 0
BBX 6 10 1 3
BITMAP
1C
3C
38
70
E0
E0
70
78
3C
1C
ENDCHAR
STARTCHAR 203A
ENCODING 8250
SWIDTH 303 0
DWIDTH 8 0
BBX 6 10 1 3
BITMAP
E0
F0
78
38
1C
1C
38
78
70
E0
ENDCHAR
STARTCHAR 2042
ENCODING 8258
SWIDTH 833 0
DWIDTH 22 0
BBX 20 19 1 0
BITMAP
006000
006000
026400
03FC00
03FC00
00F000
01F800
039C00
009000
000000
1C0380
1C0380
DD8BB0
FF9FF0
FF9FF0
3E07C0
3E07C0
770EE0
220440
ENDCHAR
STARTCHAR 2044
ENCODING 8260
SWIDTH 568 0
DWIDTH 15 0
BBX 15 17 0 0
BITMAP
000E
001C
0038
0038
0070
00E0
01E0
01C0
0380
0700
0700
0E00
1C00
3C00
3800
7000
E000
ENDCHAR
STARTCHAR 2051
ENCODING 8273
SWIDTH 416 0
DWIDTH 11 0
BBX 9 19 1 0
BITMAP
1C00
1C00
5D80
FF80
FF80
1E00
3F00
7700
2200
0000
1C00
1C00
5D80
FF80
FF80
1E00
3F00
7700
2200
ENDCHAR
STARTCHAR 2070
ENCODING 8304
SWIDTH 416 0
DWIDTH 11 0
BBX 9 10 1 9
BITMAP
1E00
7F00
7380
6380
E380
E380
E380
7380
7F00
3E00
ENDCHAR
STARTCHAR 2074
ENCODING 8308
SWIDTH 454 0
DWIDTH 12 0
BBX 9 10 1 9
BITMAP
0F00
0F00
1F00
3F00
7700
E700
FF80
FF80
0700
0700
ENDCHAR
STARTCHAR 2075
ENCODING 8309
SWIDTH 416 0
DWIDTH 11 0
BBX 8 10 1 9
BITMAP
3F
3F
60
6C
7F
27
03
E7
7F
3C
ENDCHAR
STARTCHAR 2076
ENCODING 8310
SWIDTH 416 0
DWIDTH 11 0
BBX 9 10 1 9
BITMAP
0F00
3F00
7800
6400
FF00
F780
E380
6380
7F00
3E00
ENDCHAR
STARTCHAR 2077
ENCODING 8311
SWIDTH 416 0
DWIDTH 11 0
BBX 8 10 1 9
BITMAP
FF
FF
07
0E
0C
1C
18
38
38
38
ENDCHAR
STARTCHAR 2078
ENCODING 8312
SWIDTH 416 0
DWIDTH 11 0
BBX 9 10 1 9
BITMAP
3E00
7F00
7700
7300
3E00
7F00
6380
E380
7F00
3E00
ENDCHAR
STARTCHAR 2079
ENCODING 8313
SWIDTH 416 0
DWIDTH 11 0
BBX 9 10 1 9
BITMAP
3E00
7F00
6700
E380
F780
7F80
1B00
0700
7E00
7C00
ENDCHAR
STARTCHAR 2080
ENCODING 8320
SWIDTH 416 0
DWIDTH 11 0
BBX 9 10 1 -2
BITMAP
1E00
7F00
7380
6380
E380
E380
E380
7380
7F00
3E00
ENDCHAR
STARTCHAR 2081
ENCODING 8321
SWIDTH 303 0
DWIDTH 8 0
BBX 5 10 1 -3
BITMAP
18
38
F8
F8
38
38
38
38
38
38
ENDCHAR
STARTCHAR 2082
ENCODING 8322
SWIDTH 378 0
DWIDTH 10 0
BBX 8 10 1 -3
BITMAP
3E
7F
E7
E7
0F
1E
38
70
FF
FF
ENDCHAR
STARTCHAR 2083
ENCODING 8323
SWIDTH 416 0
DWIDTH 11 0
BBX 9 10 1 -3
BITMAP
7F00
7F00
0700
1C00
1F00
1700
2380
F700
7F00
3E00
ENDCHAR
STARTCHAR 2084
ENCODING 8324
SWIDTH 454 0
DWIDTH 12 0
BBX 9 10 1 -3
BITMAP
0F00
0F00
1F00
3700
7700
E700
FF80
FF80
0700
0700
ENDCHAR
STARTCHAR 2085
ENCODING 8325
SWIDTH 416 0
DWIDTH 11 0
BBX 8 10 1 -3
BITMAP
3F
3F
60
6C
7F
27
03
E7
7F
3C
ENDCHAR
STARTCHAR 2086
ENCODING 8326
SWIDTH 416 0
DWIDTH 11 0
BBX 9 10 1 -3
BITMAP
1F00
3F00
7000
6E00
FF00
F780
E380
7380
7F00
3E00
ENDCHAR
STARTCHAR 2087
ENCODING 8327
SWIDTH 416 0
DWIDTH 11 0
BBX 8 10 1 -3
BITMAP
FF
FF
07
0E
0C
1C
18
38
38
38
ENDCHAR
STARTCHAR 2088
ENCODING 8328
SWIDTH 416 0
DWIDTH 11 0
BBX 9 10 1 -3
BITMAP
3E00
7F00
6300
7300
3E00
7F00
6380
E380
7F00
3E00
ENDCHAR
STARTCHAR 2089
ENCODING 8329
SWIDTH 416 0
DWIDTH 11 0
BBX 9 10 1 -3
BITMAP
3E00
7F00
E300
E380
7780
7F80
0300
0F00
7E00
7C00
ENDCHAR
STARTCHAR 20AC
ENCODING 8364
SWIDTH 682 0
DWIDTH 18 0
BBX 15 17 2 0
BITMAP
01F8
07FE
0FFC
1F84
1E00
3C00
FFF0
FFF0
3800
FFE0
FFC0
3C00
1E00
1F8C
0FFE
07FE
01F8
ENDCHAR
STARTCHAR 2113
ENCODING 8467
SWIDTH 416 0
DWIDTH 11 0
BBX 10 17 1 0
BITMAP
0F00
3F80
3F80
3BC0
3BC0
3B80
3B80
3F80
3F00
7E00
FC00
F800
B800
3800
3F80
1F80
0F80
ENDCHAR
STARTCHAR 2122
ENCODING 8482
SWIDTH 871 0
DWIDTH 23 0
BBX 21 10 1 9
BITMAP
FF7878
FF7878
187CF8
187CF8
187DF8
187FB8
1877B8
1877B8
187738
187338
ENDCHAR
STARTCHAR 2126
ENCODING 8486
SWIDTH 795 0
DWIDTH 21 0
BBX 18 19 1 0
BITMAP
03F800
0FFE00
1FFF00
3FBF80
7C07C0
7803C0
F003C0
F001C0
F001C0
F001C0
F003C0
7803C0
7C0780
3E0F80
1F3F00
073C00
FF3FC0
FF3FC0
FF3FC0
ENDCHAR
STARTCHAR 2160
ENCODING 8544
SWIDTH 492 0
DWIDTH 13 0
BBX 11 17 1 0
BITMAP
FFE0
FFE0
FFE0
0E00
0E00
0E00
0E00
0E00
0E00
0E00
0E00
0E00
0E00
0E00
FFE0
FFE0
FFE0
ENDCHAR
STARTCHAR 2161
ENCODING 8545
SWIDTH 795 0
DWIDTH 21 0
BBX 19 17 1 0
BITMAP
FFFFE0
FFFFE0
FFFFE0
0E1E00
0E1E00
0E1E00
0E1E00
0E1E00
0E1E00
0E1E00
0E1E00
0E1E00
0E1E00
0E1E00
FFFFE0
FFFFE0
FFFFE0
ENDCHAR
STARTCHAR 2162
ENCODING 8546
SWIDTH 1061 0
DWIDTH 28 0
BBX 26 17 1 0
BITMAP
FFFFFFC0
FFFFFFC0
FFFFFFC0
0E1E1C00
0E1E1C00
0E1E1C00
0E1E1C00
0E1E1C00
0E1E1C00
0E1E1C00
0E1E1C00
0E1E1C00
0E1E1C00
0E1E1C00
FFFFFFC0
FFFFFFC0
FFFFFFC0
ENDCHAR
STARTCHAR 2163
ENCODING 8547
SWIDTH 1061 0
DWIDTH 28 0
BBX 26 17 1 0
BITMAP
FFFFFFC0
FFFFFFC0
FFFFFFC0
0E781E00
0E3C1C00
0E3C3C00
0E3C3C00
0E1E3800
0E1E7800
0E1E7800
0E0E7000
0E0FF000
0E0FF000
0E07E000
FFFFFFC0
FFFFFFC0
FFFFFFC0
ENDCHAR
STARTCHAR 2164
ENCODING 8548
SWIDTH 795 0
DWIDTH 21 0
BBX 19 17 1 0
BITMAP
FFFFE0
FFFFE0
FFFFE0
1E0700
1E0F00
0E0F00
0F0E00
0F1E00
071E00
079C00
07BC00
03BC00
03F800
03F800
FFFFE0
FFFFE0
FFFFE0
ENDCHAR
STARTCHAR 2165
ENCODING 8549
SWIDTH 1061 0
DWIDTH 28 0
BBX 26 17 1 0
BITMAP
FFFFFFC0
FFFFFFC0
FFFFFFC0
1E073C00
1E0F3C00
0F0F3C00
0F0E3C00
0F1E3C00
071E3C00
079C3C00
07BC3C00
03BC3C00
03F83C00
03F83C00
FFFFFFC0
FFFFFFC0
FFFFFFC0
ENDCHAR
STARTCHAR 2166
ENCODING 8550
SWIDTH 1326 0
DWIDTH 35 0
BBX 33 17 1 0
BITMAP
FFFFFFFF80
FFFFFFFF80
FFFFFFFF80
1E073C3800
1E0F3C3800
0F0F3C3800
0F0E3C3800
0F1E3C3800
071E3C3800
079C3C3800
07BC3C3800
03BC3C3800
03F83C3800
03F83C3800
FFFFFFFF80
FFFFFFFF80
FFFFFFFF80
ENDCHAR
STARTCHAR 2167
ENCODING 8551
SWIDTH 1591 0
DWIDTH 42 0
BBX 40 17 1 0
BITMAP
FFFFFFFFFF
FFFFFFFFFF
FFFFFFFFFF
1E0F3C3870
1E0F3C3870
0F0E3C3870
0F0E3C3870
0F1E3C3870
071E3C3870
079C3C3870
07BC3C3870
03BC3C3870
03F83C3870
03F83C3870
FFFFFFFFFF
FFFFFFFFFF
FFFFFFFFFF
ENDCHAR
STARTCHAR 2168
ENCODING 8552
SWIDTH 1023 0
DWIDTH 27 0
BBX 25 17 1 0
BITMAP
FFFFFF80
FFFFFF80
FFFFFF80
0E3C3C00
0E3E7800
0E1EF000
0E0FF000
0E07E000
0E07C000
0E07E000
0E0FE000
0E1EF000
0E1E7800
0E3C7C00
FFFFFF80
FFFFFF80
FFFFFF80
ENDCHAR
STARTCHAR 2169
ENCODING 8553
SWIDTH 795 0
DWIDTH 21 0
BBX 18 17 1 0
BITMAP
FFFFC0
FFFFC0
FFFFC0
1E1E00
0F3E00
07BC00
07F800
03F000
01F000
03F000
03F800
07BC00
0F3C00
1F1E00
FFFFC0
FFFFC0
FFFFC0
ENDCHAR
STARTCHAR 216C
ENCODING 8556
SWIDTH 644 0
DWIDTH 17 0
BBX 15 17 1 0
BITMAP
FFC0
FFC0
FFC0
1E00
1E00
1E00
1E00
1E00
1E00
1E0E
1E0E
1E0E
1E0E
1E0E
FFFE
FFFE
FFFE
ENDCHAR
STARTCHAR 216D
ENCODING 8557
SWIDTH 720 0
DWIDTH 19 0
BBX 17 17 1 0
BITMAP
03F380
0FFF80
1FFF80
3C0F80
780780
700780
F00000
F00000
F00000
F00000
F00380
780780
7C0780
3F1F80
1FFF80
0FFB80
03F380
ENDCHAR
STARTCHAR 216E
ENCODING 8558
SWIDTH 757 0
DWIDTH 20 0
BBX 17 17 1 0
BITMAP
FFF000
FFFC00
FFFE00
1E1F00
1E0F80
1E0780
1E0780
1E0380
1E0380
1E0380
1E0780
1E0780
1E0F80
1E1F00
FFFE00
FFFC00
FFF000
ENDCHAR
STARTCHAR 216F
ENCODING 8559
SWIDTH 1061 0
DWIDTH 28 0
BBX 26 17 1 0
BITMAP
FF007FC0
FF807FC0
FF80FFC0
1FC0FC00
1FC0FC00
1FC1FC00
1FE1DC00
1EE3DC00
1EF3DC00
1EF39C00
1E779C00
1E7F1C00
1E3F1C00
1E3F1C00
FF9E7FC0
FF9E7FC0
FF9C7FC0
ENDCHAR
STARTCHAR 2190
ENCODING 8592
SWIDTH 1061 0
DWIDTH 28 0
BBX 26 12 0 2
BITMAP
02000000
06000000
0E000000
1E000000
3E000000
7FFFFFC0
FFFFFFC0
7FFFFFC0
3E000000
0E000000
06000000
02000000
ENDCHAR
STARTCHAR 2191
ENCODING 8593
SWIDTH 492 0
DWIDTH 13 0
BBX 11 25 1 -4
BITMAP
0400
0600
0F00
1F80
3FC0
7FE0
FFE0
0E00
0E00
0E00
0E00
0E00
0E00
0E00
0E00
0E00
0E00
0E00
0E00
0E00
0E00
0E00
0E00
0E00
0E00
ENDCHAR
STARTCHAR 2192
ENCODING 8594
SWIDTH 1098 0
DWIDTH 29 0
BBX 27 12 1 2
BITMAP
00001000
00001800
00001C00
00001E00
00001F00
FFFFFFC0
FFFFFFE0
FFFFFF80
00001F00
00001C00
00001800
00001000
ENDCHAR
STARTCHAR 2193
ENCODING 8595
SWIDTH 492 0
DWIDTH 13 0
BBX 12 25 0 -4
BITMAP
0E00
0E00
0E00
0E00
0E00
0E00
0E00
0E00
0E00
0E00
0E00
0E00
0E00
0E00
0E00
0E00
0E00
0E00
FFF0
7FE0
3FC0
1F80
0F00
0600
0400
ENDCHAR
STARTCHAR 2196
ENCODING 8598
SWIDTH 871 0
DWIDTH 23 0
BBX 18 19 2 0
BITMAP
FF0000
FE0000
FC0000
F80000
FC0000
FE0000
CF0000
878000
03C000
01E000
00F000
007800
003C00
001E00
000F00
000780
0003C0
0001C0
000080
ENDCHAR
STARTCHAR 2197
ENCODING 8599
SWIDTH 757 0
DWIDTH 20 0
BBX 19 19 -1 0
BITMAP
003FE0
001FE0
000FE0
0007E0
000FE0
001FE0
003CE0
007860
00F020
01E000
03C000
078000
0F0000
1E0000
3C0000
780000
F00000
E00000
400000
ENDCHAR
STARTCHAR 2198
ENCODING 8600
SWIDTH 871 0
DWIDTH 23 0
BBX 18 19 2 0
BITMAP
400000
E00000
F00000
780000
3C0000
1E0000
0F0000
078000
03C000
01E000
00F000
007840
003CC0
001FC0
000FC0
0007C0
000FC0
001FC0
003FC0
ENDCHAR
STARTCHAR 2199
ENCODING 8601
SWIDTH 757 0
DWIDTH 20 0
BBX 19 19 1 0
BITMAP
000080
0001C0
0003E0
0007C0
000F80
001F00
003E00
007C00
00F800
01F000
03E000
87C000
CF8000
FF0000
FE0000
FC0000
FC0000
FE0000
FF0000
ENDCHAR
STARTCHAR 21A9
ENCODING 8617
SWIDTH 871 0
DWIDTH 23 0
BBX 23 16 -1 1
BITMAP
000FF0
000FF8
000FFC
00001E
02000E
06000E
0E000E
1E001E
3FFFFC
FFFFF8
7FFFF0
1E0000
0E0000
060000
020000
020000
ENDCHAR
STARTCHAR 21B0
ENCODING 8624
SWIDTH 795 0
DWIDTH 21 0
BBX 18 19 1 0
BITMAP
020000
060000
0E0000
1E0000
7FFFC0
FFFFC0
7FFFC0
3E01C0
1E01C0
0601C0
0201C0
0001C0
0001C0
0001C0
0001C0
0001C0
0001C0
0001C0
0001C0
ENDCHAR
STARTCHAR 21B1
ENCODING 8625
SWIDTH 757 0
DWIDTH 20 0
BBX 19 19 1 0
BITMAP
001000
000800
000E00
000F00
FFFF80
FFFFE0
FFFF80
E00F00
E00E00
E00C00
E00800
E00000
E00000
E00000
E00000
E00000
E00000
E00000
E00000
ENDCHAR
STARTCHAR 21B2
ENCODING 8626
SWIDTH 757 0
DWIDTH 20 0
BBX 18 19 0 0
BITMAP
0001C0
0001C0
0001C0
0001C0
0001C0
0001C0
0001C0
0201C0
0601C0
0E01C0
1E01C0
3E01C0
7FFFC0
FFFFC0
7FFFC0
3E0000
1E0000
060000
020000
ENDCHAR
STARTCHAR 21B3
ENCODING 8627
SWIDTH 833 0
DWIDTH 22 0
BBX 19 19 2 0
BITMAP
E00000
E00000
E00000
E00000
E00000
E00000
E00000
E00000
E00800
E00C00
E00E00
E00F00
FFFF80
FFFFE0
FFFF80
000F00
000E00
000800
001000
ENDCHAR
STARTCHAR 21B4
ENCODING 8628
SWIDTH 795 0
DWIDTH 21 0
BBX 19 19 2 0
BITMAP
FFFE00
FFFE00
FFFE00
001E00
001E00
001E00
001E00
001E00
001E00
001E00
001E00
001E00
01FFE0
00FFC0
007F80
003F00
001E00
000C00
000400
ENDCHAR
STARTCHAR 21C6
ENCODING 8646
SWIDTH 1174 0
DWIDTH 31 0
BBX 27 23 2 -2
BITMAP
02000000
06000000
0E000000
1E000000
3E000000
7FFFFFE0
FFFFFFE0
7FFFFFE0
3E000000
1E000000
06000000
02000800
00000E00
00000F00
00000F80
FFFFFFC0
FFFFFFE0
FFFFFFC0
00000F80
00000F00
00000E00
00000C00
00000800
ENDCHAR
STARTCHAR 2202
ENCODING 8706
SWIDTH 606 0
DWIDTH 16 0
BBX 14 19 1 0
BITMAP
1F80
7FE0
7FF0
30F8
0078
003C
003C
0F9C
3FFC
7FFC
F87C
F01C
F01C
F03C
F03C
F8F8
7FF0
3FE0
0FC0
ENDCHAR
STARTCHAR 2206
ENCODING 8710
SWIDTH 682 0
DWIDTH 18 0
BBX 18 19 0 0
BITMAP
01E000
01F000
03F000
03F000
07F800
07B800
073C00
0F3C00
0F1C00
0E1E00
1E1E00
1C0E00
3C0F00
3C0F00
380780
780780
7FFF80
7FFFC0
FFFFC0
ENDCHAR
STARTCHAR 220F
ENCODING 8719
SWIDTH 682 0
DWIDTH 18 0
BBX 14 19 2 0
BITMAP
FFFC
FFFC
FFFC
F03C
F03C
F03C
F03C
F03C
F03C
F03C
F03C
F03C
F03C
F03C
F03C
F03C
F03C
F03C
F03C
ENDCHAR
STARTCHAR 2211
ENCODING 8721
SWIDTH 568 0
DWIDTH 15 0
BBX 14 19 1 0
BITMAP
FFFC
FFFC
FFFC
F800
7C00
3E00
1F00
0F80
03C0
01F0
03C0
0780
1F00
3E00
7C00
F800
FFFC
FFFC
FFFC
ENDCHAR
STARTCHAR 2212
ENCODING 8722
SWIDTH 568 0
DWIDTH 15 0
BBX 13 3 1 6
BITMAP
FFF8
FFF8
FFF8
ENDCHAR
STARTCHAR 2215
ENCODING 8725
SWIDTH 454 0
DWIDTH 12 0
BBX 11 17 0 0
BITMAP
00E0
00E0
01C0
01C0
0380
0380
0700
0700
0E00
0E00
1C00
1C00
3800
3800
7000
7000
E000
ENDCHAR
STARTCHAR 2219
ENCODING 8729
SWIDTH 303 0
DWIDTH 8 0
BBX 4 4 2 6
BITMAP
E0
F0
F0
E0
ENDCHAR
STARTCHAR 221A
ENCODING 8730
SWIDTH 682 0
DWIDTH 18 0
BBX 18 23 1 0
BITMAP
000FC0
000FC0
000FC0
001E00
001C00
001C00
003C00
003800
003800
E07800
F07000
707000
70F000
78E000
38E000
3DE000
1DC000
1DC000
1F8000
0F8000
0F8000
0F0000
070000
ENDCHAR
STARTCHAR 221E
ENCODING 8734
SWIDTH 833 0
DWIDTH 22 0
BBX 20 10 1 3
BITMAP
1E0780
7F9FC0
7FFFE0
F3F8F0
E0F070
E0F070
F1F8F0
7FFFE0
7F9FC0
1E0780
ENDCHAR
STARTCHAR 222B
ENCODING 8747
SWIDTH 341 0
DWIDTH 9 0
BBX 9 24 0 -5
BITMAP
0780
0F80
1F80
1E00
1C00
1C00
1C00
1C00
1C00
1C00
1C00
1C00
1C00
1C00
1C00
1C00
1C00
1C00
1C00
1C00
3C00
FC00
F800
F000
ENDCHAR
STARTCHAR 2248
ENCODING 8776
SWIDTH 606 0
DWIDTH 16 0
BBX 14 10 1 3
BITMAP
3C00
7F18
FFFC
63F8
01F0
0000
3F08
7FFC
FFF8
63F0
ENDCHAR
STARTCHAR 2260
ENCODING 8800
SWIDTH 606 0
DWIDTH 16 0
BBX 12 13 2 1
BITMAP
00E0
00E0
FFF0
FFF0
FFF0
0700
0E00
FFF0
FFF0
FFF0
3800
7000
F000
ENDCHAR
STARTCHAR 2264
ENCODING 8804
SWIDTH 530 0
DWIDTH 14 0
BBX 12 14 1 1
BITMAP
0030
01F0
0FF0
7FC0
FE00
FC00
FF80
1FF0
03F0
0070
0000
FFF0
FFF0
FFF0
ENDCHAR
STARTCHAR 2265
ENCODING 8805
SWIDTH 530 0
DWIDTH 14 0
BBX 11 14 2 1
BITMAP
8000
F000
FE00
7FC0
07E0
03E0
3FE0
FF00
F800
C000
0000
FFE0
FFE0
FFE0
ENDCHAR
STARTCHAR 22C5
ENCODING 8901
SWIDTH 303 0
DWIDTH 8 0
BBX 4 4 2 6
BITMAP
E0
F0
F0
E0
ENDCHAR
STARTCHAR 24C5
ENCODING 9413
SWIDTH 833 0
DWIDTH 22 0
BBX 20 19 1 0
BITMAP
01F800
0FFE00
1E0F00
380380
73F9C0
63FCE0
E39C60
E38C60
C38C60
C3FC70
C3F860
E38060
638060
6380E0
3381C0
380380
1E0F00
07FE00
01F800
ENDCHAR
STARTCHAR 25A0
ENCODING 9632
SWIDTH 909 0
DWIDTH 24 0
BBX 18 19 3 0
BITMAP
FFFFC0
FFFFC0
FFFFC0
FFFFC0
FFFFC0
FFFFC0
FFFFC0
FFFFC0
FFFFC0
FFFFC0
FFFFC0
FFFFC0
FFFFC0
FFFFC0
FFFFC0
FFFFC0
FFFFC0
FFFFC0
FFFFC0
ENDCHAR
STARTCHAR 25A1
ENCODING 9633
SWIDTH 909 0
DWIDTH 24 0
BBX 18 19 3 0
BITMAP
FFFFC0
FFFFC0
FFFFC0
E001C0
E001C0
E001C0
E001C0
E001C0
E001C0
E001C0
E001C0
E001C0
E001C0
E001C0
E001C0
E001C0
FFFFC0
FFFFC0
FFFFC0
ENDCHAR
STARTCHAR 25B2
ENCODING 9650
SWIDTH 833 0
DWIDTH 22 0
BBX 22 19 0 0
BITMAP
002000
003000
003800
007800
00FC00
00FC00
01FE00
01FE00
03FF00
03FF80
07FF80
0FFFC0
0FFFC0
1FFFE0
1FFFF0
3FFFF0
7FFFF8
7FFFF8
FFFFFC
ENDCHAR
STARTCHAR 25B3
ENCODING 9651
SWIDTH 833 0
DWIDTH 22 0
BBX 22 19 0 0
BITMAP
002000
003000
003800
007800
00FC00
00FC00
01FE00
01CE00
03CF00
038780
070380
0F03C0
0E01C0
1E01E0
1C00E0
3C0070
7FFFF8
7FFFF8
FFFFFC
ENDCHAR
STARTCHAR 25CA
ENCODING 9674
SWIDTH 606 0
DWIDTH 16 0
BBX 15 19 1 0
BITMAP
0780
0FC0
0FC0
1FE0
1EF0
3CF0
7878
7878
F03C
F03E
F03C
7878
7878
3CF0
1EF0
1FE0
0FC0
0FC0
0780
ENDCHAR
STARTCHAR 25CB
ENCODING 9675
SWIDTH 795 0
DWIDTH 21 0
BBX 20 19 1 0
BITMAP
01F800
07FE00
1FFF00
3E0F80
7803C0
7001E0
F000E0
E000E0
E000E0
E000F0
E000E0
E000E0
F000E0
7001E0
7803C0
3E0F80
1FFF00
0FFE00
01F800
ENDCHAR
STARTCHAR 25CF
ENCODING 9679
SWIDTH 795 0
DWIDTH 21 0
BBX 20 19 1 0
BITMAP
01F800
07FE00
1FFF00
3FFF80
7FFFC0
7FFFE0
FFFFE0
FFFFE0
FFFFE0
FFFFF0
FFFFE0
FFFFE0
FFFFE0
7FFFE0
7FFFC0
3FFF80
1FFF00
0FFE00
01F800
ENDCHAR
STARTCHAR 262E
ENCODING 9774
SWIDTH 833 0
DWIDTH 22 0
BBX 19 19 1 0
BITMAP
01F800
07FE00
1FFF00
3EE780
38E3C0
70E1E0
70E0E0
E0E0E0
E0F0E0
E3F8E0
E7FCE0
EFFEE0
7EEFE0
7CE7E0
78E3C0
3EE780
1FFF00
0FFE00
01F800
ENDCHAR
STARTCHAR 2713
ENCODING 10003
SWIDTH 947 0
DWIDTH 25 0
BBX 23 19 1 0
BITMAP
000004
00000E
00001E
00003C
000078
0000F0
0001E0
0003C0
000780
400F00
E01E00
F03C00
787800
3CF000
1FE000
0FE000
07C000
038000
010000
ENDCHAR
STARTCHAR 2715
ENCODING 10005
SWIDTH 757 0
DWIDTH 20 0
BBX 18 19 1 0
BITMAP
400080
E001C0
F003C0
780780
3C0F00
1E1E00
0F3C00
07F800
03F000
01E000
03F000
07F800
0F3C00
1E1E00
3C0F00
780780
F003C0
E001C0
400080
ENDCHAR
STARTCHAR 2780
ENCODING 10112
SWIDTH 833 0
DWIDTH 22 0
BBX 20 19 1 0
BITMAP
01F800
07FE00
1E0F00
380380
3001C0
7070E0
60F060
E1F060
C07070
C07070
C07070
E07060
607060
7070E0
3001C0
380380
1E0F00
07FE00
01F800
ENDCHAR
STARTCHAR 2781
ENCODING 10113
SWIDTH 833 0
DWIDTH 22 0
BBX 20 19 1 0
BITMAP
01F800
07FE00
1E0F80
3803C0
30F1C0
63F8E0
63B860
E31860
C03870
C0F070
C1E070
E38060
63FC60
73FCE0
3001C0
380380
1E0F00
07FE00
01F800
ENDCHAR
STARTCHAR 2782
ENCODING 10114
SWIDTH 833 0
DWIDTH 22 0
BBX 20 19 1 0
BITMAP
01F800
07FE00
1E0F00
380380
3001C0
63FCE0
63FC60
E07860
C0E070
C07870
C01C70
E31C60
63F860
71F0E0
3001C0
3C0380
1F0F00
07FE00
01F800
ENDCHAR
STARTCHAR 2783
ENCODING 10115
SWIDTH 833 0
DWIDTH 22 0
BBX 20 19 1 0
BITMAP
01F800
07FE00
1E0F00
380380
3001C0
6070E0
60F060
E1B060
C3B070
C73070
C7FC70
E7FC60
603060
7030E0
3001C0
3C0380
1F0F00
07FE00
01F800
ENDCHAR
STARTCHAR 2784
ENCODING 10116
SWIDTH 833 0
DWIDTH 22 0
BBX 20 19 1 0
BITMAP
01F800
07FE00
1E0F00
380380
3001C0
71F8E0
61F860
E18060
C37070
C3F870
C01C70
E31C60
63F860
71F0E0
3001C0
3C0380
1F0F00
07FE00
01F800
ENDCHAR
STARTCHAR 2785
ENCODING 10117
SWIDTH 833 0
DWIDTH 22 0
BBX 20 19 1 0
BITMAP
01F800
07FE00
1F0F00
3C0380
3001C0
70F8E0
61F860
E38060
C37070
C7F870
C71C70
E31C60
63F860
71F0E0
3001C0
3C0380
1F0F00
07FE00
01F800
ENDCHAR
STARTCHAR 2786
ENCODING 10118
SWIDTH 833 0
DWIDTH 22 0
BBX 20 19 1 0
BITMAP
01F800
07FE00
1E0F00
380380
3001C0
73FCE0
63FC60
E03C60
C03870
C07070
C0E070
E0E060
60C060
71C0E0
3001C0
380380
1E0F00
07FE00
01F800
ENDCHAR
STARTCHAR 2787
ENCODING 10119
SWIDTH 833 0
DWIDTH 22 0
BBX 20 19 1 0
BITMAP
01F800
07FE00
1F0F00
3C0380
3001C0
71F0E0
63F860
E39C60
C3B870
C1F070
C39C70
E39C60
63FC60
71F8E0
3001C0
3C0380
1F0F00
07FE00
01F800
ENDCHAR
STARTCHAR 2788
ENCODING 10120
SWIDTH 833 0
DWIDTH 22 0
BBX 20 19 1 0
BITMAP
01F800
07FE00
1F0F00
3C0380
3001C0
70F0E0
63F860
E39C60
C39C70
C3FC70
C1FC70
E01C60
61F860
73F0E0
3001C0
3C0380
1F0F00
07FE00
01F800
ENDCHAR
STARTCHAR E000
ENCODING 57344
SWIDTH 757 0
DWIDTH 20 0
BBX 19 19 0 0
BITMAP
0FFFE0
0FFFE0
0FFFE0
0E0000
0E0000
0E0000
0E0000
0E0000
0E0000
0E0000
0E0000
0E0000
FFF000
7FE000
3FC000
1F8000
0F0000
060000
040000
ENDCHAR
STARTCHAR E001
ENCODING 57345
SWIDTH 1098 0
DWIDTH 29 0
BBX 27 19 1 0
BITMAP
001F8000
007FC000
01FFC000
03E08000
03C00600
07000F00
07001F80
0E003FC0
0E007FE0
0E00FFE0
FFE00E00
3FC00E00
1F800E00
0F001E00
0E003C00
0420F800
003FF000
007FE000
001F8000
ENDCHAR
STARTCHAR E002
ENCODING 57346
SWIDTH 947 0
DWIDTH 25 0
BBX 24 19 1 0
BITMAP
01F800
07FC00
1FF800
3E0800
3C0060
7800F0
7001F8
F003FC
E007FE
E00FFF
E00070
F000E0
7000E0
7801E0
3C03C0
3E07C0
1FFF00
07FE00
01F800
ENDCHAR
STARTCHAR FB00
ENCODING 64256
SWIDTH 682 0
DWIDTH 18 0
BBX 18 19 0 0
BITMAP
0787C0
0F8FC0
1F8FC0
1C1E00
1C1E00
1C1E00
FFFFC0
FFFFC0
FFFFC0
1C1E00
1C1E00
1C1E00
1C1E00
1C1E00
1C1E00
1C1E00
1C1E00
1C1E00
1C1E00
ENDCHAR
STARTCHAR FB01
ENCODING 64257
SWIDTH 644 0
DWIDTH 17 0
BBX 15 19 0 0
BITMAP
078C
0F9E
1F9E
1C0C
1C00
1C00
FFFE
FFFE
FFFE
1C1E
1C1E
1C1E
1C1E
1C1E
1C1E
1C1E
1C1E
1C1E
1C1E
ENDCHAR
STARTCHAR FB02
ENCODING 64258
SWIDTH 644 0
DWIDTH 17 0
BBX 15 19 0 0
BITMAP
079E
0F9E
1F9E
1E1E
1C1E
1C1E
FFFE
FFFE
FFFE
1C1E
1C1E
1C1E
1C1E
1C1E
1C1E
1C1E
1C1E
1C1E
1C1E
ENDCHAR
STARTCHAR FB03
ENCODING 64259
SWIDTH 947 0
DWIDTH 25 0
BBX 24 19 0 0
BITMAP
0787CE
0F8FCF
1F8FCF
1C1E0E
1C1E00
1C1E00
FFFFFE
FFFFFE
FFFFFE
1C1E0E
1C1E0E
1C1E0E
1C1E0E
1C1E0E
1C1E0E
1C1E0E
1C1E0E
1C1E0E
1C1E0E
ENDCHAR
STARTCHAR FB04
ENCODING 64260
SWIDTH 947 0
DWIDTH 25 0
BBX 23 19 0 0
BITMAP
0787CE
0F8FCE
1F8FCE
1C1E0E
1C1E0E
1C1E0E
FFFFFE
FFFFFE
FFFFFE
1C1E0E
1C1E0E
1C1E0E
1C1E0E
1C1E0E
1C1E0E
1C1E0E
1C1E0E
1C1E0E
1C1E0E
ENDCHAR
STARTCHAR FEFF
ENCODING 65279
SWIDTH 0 0
DWIDTH 0 0
BBX 0 0 0 0
BITMAP
ENDCHAR
ENDFONT
